<svg width="25" height="24" viewBox="0 0 25 24" fill="none" xmlns="http://www.w3.org/2000/svg">
  <path fill-rule="evenodd" clip-rule="evenodd"
        d="M8.38739 3.3954C5.81039 3.3954 4.14539 5.1624 4.14539 7.8884V16.1024C4.14539 16.8674 4.28739 17.5504 4.53039 18.1414C4.54088 18.1289 4.76974 17.85 5.06828 17.4862C5.65176 16.7751 6.50144 15.7397 6.50739 15.7344C7.19939 14.9444 8.49839 13.7664 10.2034 14.4794C10.577 14.6343 10.9091 14.8465 11.2148 15.0419C11.2446 15.0609 11.2741 15.0798 11.3034 15.0984C11.8764 15.4814 12.2134 15.6614 12.5634 15.6314C12.7084 15.6114 12.8444 15.5684 12.9734 15.4884C13.46 15.1884 14.7216 13.4008 15.0994 12.8655C15.1548 12.787 15.1912 12.7354 15.2034 12.7194C16.2934 11.2994 17.9734 10.9194 19.3734 11.7594C19.5614 11.8714 20.9084 12.8124 21.3544 13.1904V7.8884C21.3544 5.1624 19.6894 3.3954 17.1034 3.3954H8.38739ZM17.1034 2.0004C20.4804 2.0004 22.7494 4.3624 22.7494 7.8884V16.1024C22.7494 16.1911 22.7401 16.2742 22.7308 16.3574C22.7242 16.4158 22.7177 16.4741 22.7144 16.5344C22.7122 16.5708 22.7112 16.6072 22.7102 16.6437C22.7088 16.6922 22.7074 16.7408 22.7034 16.7894C22.7014 16.8084 22.6976 16.8266 22.6939 16.8449C22.6901 16.8631 22.6864 16.8814 22.6844 16.9004C22.6514 17.2144 22.6004 17.5144 22.5294 17.8054C22.5126 17.8781 22.4932 17.9482 22.4737 18.019L22.4694 18.0344C22.3894 18.3164 22.2954 18.5854 22.1824 18.8424C22.1626 18.8856 22.1417 18.9277 22.1208 18.9699C22.1069 18.9979 22.093 19.026 22.0794 19.0544C21.9574 19.2994 21.8254 19.5344 21.6724 19.7524C21.6441 19.7927 21.614 19.8306 21.5838 19.8685C21.5638 19.8935 21.5439 19.9185 21.5244 19.9444C21.3654 20.1504 21.1994 20.3474 21.0114 20.5264C20.9739 20.5621 20.9333 20.5947 20.8927 20.6274C20.8674 20.6478 20.842 20.6682 20.8174 20.6894C20.6244 20.8554 20.4274 21.0144 20.2104 21.1504C20.163 21.1801 20.1127 21.2051 20.0626 21.23C20.0302 21.2461 19.9978 21.2621 19.9664 21.2794C19.7454 21.4014 19.5224 21.5204 19.2794 21.6124C19.2209 21.6346 19.1587 21.6507 19.0963 21.6668C19.052 21.6782 19.0076 21.6897 18.9644 21.7034C18.9428 21.7101 18.9211 21.7168 18.8995 21.7235C18.6825 21.7911 18.4661 21.8584 18.2324 21.8984C18.097 21.9221 17.9533 21.9312 17.8095 21.9404C17.7472 21.9443 17.685 21.9483 17.6234 21.9534C17.5572 21.9583 17.4922 21.9663 17.4272 21.9743C17.3215 21.9874 17.2155 22.0004 17.1034 22.0004H8.38739C8.01139 22.0004 7.65239 21.9624 7.30539 21.9054C7.29239 21.9034 7.28039 21.9014 7.26839 21.8994C5.91539 21.6664 4.79239 21.0134 4.00539 20.0284C3.99992 20.0284 3.99778 20.0247 3.99492 20.0198C3.99307 20.0166 3.99092 20.0129 3.98739 20.0094C3.19639 19.0134 2.74939 17.6744 2.74939 16.1024V7.8884C2.74939 4.3624 5.02039 2.0004 8.38739 2.0004H17.1034ZM11.75 8.51496C11.75 9.86991 10.6163 11 9.25483 11C8.05813 11 7.03778 10.1256 6.8091 8.99363C6.77131 8.82378 6.74999 8.6491 6.74999 8.46863C6.74999 7.10403 7.85852 6 9.22867 6C9.92635 6 10.5581 6.29338 11.0106 6.76143C11.4651 7.21308 11.75 7.83555 11.75 8.51496Z"
        fill="#0091EA"/>
</svg>
