<svg width="16" height="16" viewBox="0 0 16 16" fill="none" xmlns="http://www.w3.org/2000/svg">
<path fill-rule="evenodd" clip-rule="evenodd" d="M0 7.99902C0 3.58782 3.5888 -0.000976562 8 -0.000976562C12.4111 -0.000976562 16 3.58782 16 7.99902C16 12.4102 12.4112 15.999 8 15.999C3.5888 15.999 0 12.4102 0 7.99902ZM8.99327 11.8817C8.93551 11.3817 8.51284 10.999 8 10.999L7.88267 11.0058C7.38272 11.0635 7 11.4862 7 11.999C7 12.5552 7.44772 12.999 8 12.999L8.11733 12.9923C8.61728 12.9345 9 12.5119 9 11.999L8.99327 11.8817ZM9 4.00195C9 3.4369 8.55228 2.99902 8 2.99902L7.88267 3.00577C7.38272 3.0637 7 3.48762 7 4.00195V8.99609C7 9.56114 7.44772 9.99902 8 9.99902L8.11733 9.99228C8.61728 9.93434 9 9.51043 9 8.99609V4.00195Z" fill="#16A34A"/>
</svg>
