<svg width="14" height="12" viewBox="0 0 14 12" fill="none" xmlns="http://www.w3.org/2000/svg">
<path d="M13.4166 3.03199C13.4166 3.47199 13.0566 3.83199 12.6166 3.83199H0.883313C0.443313 3.83199 0.083313 3.47199 0.083313 3.03199V3.02532C0.083313 1.49865 1.31665 0.26532 2.84331 0.26532H10.65C12.1766 0.26532 13.4166 1.50532 13.4166 3.03199ZM0.083313 5.63332V8.97332C0.083313 10.5 1.31665 11.7333 2.84331 11.7333H10.65C12.1766 11.7333 13.4166 10.4933 13.4166 8.96665V5.63332C13.4166 5.19332 13.0566 4.83332 12.6166 4.83332H0.883313C0.443313 4.83332 0.083313 5.19332 0.083313 5.63332ZM4.08331 9.49999H2.74998C2.47665 9.49999 2.24998 9.27332 2.24998 8.99999C2.24998 8.72665 2.47665 8.49999 2.74998 8.49999H4.08331C4.35665 8.49999 4.58331 8.72665 4.58331 8.99999C4.58331 9.27332 4.35665 9.49999 4.08331 9.49999ZM8.41665 9.49999H5.74998C5.47665 9.49999 5.24998 9.27332 5.24998 8.99999C5.24998 8.72665 5.47665 8.49999 5.74998 8.49999H8.41665C8.68998 8.49999 8.91665 8.72665 8.91665 8.99999C8.91665 9.27332 8.68998 9.49999 8.41665 9.49999Z" fill="#9DA3AF"/>
</svg>
