<svg width="12" height="13" viewBox="0 0 12 13" fill="none" xmlns="http://www.w3.org/2000/svg">
<path d="M9.57686 1.21332C9.57686 2.27332 8.71019 3.13999 7.65019 3.13999H4.51686C3.45686 3.13999 2.59019 2.27332 2.59019 1.21332C2.59019 0.839987 2.19019 0.606653 1.85686 0.779987C1.37936 1.03427 0.98005 1.41368 0.701717 1.87757C0.423383 2.34146 0.276517 2.87234 0.276856 3.41332V9.68665C0.276856 11.3267 1.61686 12.6667 3.25686 12.6667H8.91019C10.5502 12.6667 11.8902 11.3267 11.8902 9.68665V3.41332C11.8902 2.27332 11.2502 1.27999 10.3102 0.779987C9.97686 0.606653 9.57686 0.839987 9.57686 1.21332ZM8.31019 6.48665L5.64352 9.15332C5.54352 9.25332 5.41686 9.29999 5.29019 9.29999C5.16352 9.29999 5.03686 9.25332 4.93686 9.15332L3.93686 8.15332C3.84387 8.05923 3.79172 7.93227 3.79172 7.79999C3.79172 7.6677 3.84387 7.54075 3.93686 7.44665C4.13019 7.25332 4.45019 7.25332 4.64352 7.44665L5.29019 8.09332L7.60352 5.77999C7.79686 5.58665 8.11686 5.58665 8.31019 5.77999C8.50352 5.97332 8.50352 6.29332 8.31019 6.48665Z" fill="#0091EA"/>
</svg>
