<svg width="14" height="14" viewBox="0 0 14 14" fill="none" xmlns="http://www.w3.org/2000/svg">
<path d="M12.6667 5.79331H10.74C9.16002 5.79331 7.87335 4.50665 7.87335 2.92665V0.99998C7.87335 0.633313 7.57335 0.333313 7.20669 0.333313H4.38002C2.32669 0.333313 0.666687 1.66665 0.666687 4.04665V9.95331C0.666687 12.3333 2.32669 13.6666 4.38002 13.6666H9.62002C11.6734 13.6666 13.3334 12.3333 13.3334 9.95331V6.45998C13.3334 6.09331 13.0334 5.79331 12.6667 5.79331ZM6.66669 10.8333H4.00002C3.72669 10.8333 3.50002 10.6066 3.50002 10.3333C3.50002 10.06 3.72669 9.83331 4.00002 9.83331H6.66669C6.94002 9.83331 7.16669 10.06 7.16669 10.3333C7.16669 10.6066 6.94002 10.8333 6.66669 10.8333ZM8.00002 8.16665H4.00002C3.72669 8.16665 3.50002 7.93998 3.50002 7.66665C3.50002 7.39331 3.72669 7.16665 4.00002 7.16665H8.00002C8.27335 7.16665 8.50002 7.39331 8.50002 7.66665C8.50002 7.93998 8.27335 8.16665 8.00002 8.16665Z" fill="#0091EA"/>
</svg>
