<svg width="14" height="12" viewBox="0 0 14 12" fill="none" xmlns="http://www.w3.org/2000/svg">
<path d="M13.4168 3.03199C13.4168 3.47199 13.0568 3.83199 12.6168 3.83199H0.883496C0.443496 3.83199 0.0834961 3.47199 0.0834961 3.03199V3.02532C0.0834961 1.49865 1.31683 0.26532 2.8435 0.26532H10.6502C12.1768 0.26532 13.4168 1.50532 13.4168 3.03199ZM0.0834961 5.63332V8.97332C0.0834961 10.5 1.31683 11.7333 2.8435 11.7333H10.6502C12.1768 11.7333 13.4168 10.4933 13.4168 8.96665V5.63332C13.4168 5.19332 13.0568 4.83332 12.6168 4.83332H0.883496C0.443496 4.83332 0.0834961 5.19332 0.0834961 5.63332ZM4.0835 9.49999H2.75016C2.47683 9.49999 2.25016 9.27332 2.25016 8.99999C2.25016 8.72665 2.47683 8.49999 2.75016 8.49999H4.0835C4.35683 8.49999 4.5835 8.72665 4.5835 8.99999C4.5835 9.27332 4.35683 9.49999 4.0835 9.49999ZM8.41683 9.49999H5.75016C5.47683 9.49999 5.25016 9.27332 5.25016 8.99999C5.25016 8.72665 5.47683 8.49999 5.75016 8.49999H8.41683C8.69016 8.49999 8.91683 8.72665 8.91683 8.99999C8.91683 9.27332 8.69016 9.49999 8.41683 9.49999Z" fill="#0091EA"/>
</svg>
