<svg width="12" height="13" viewBox="0 0 12 13" fill="none" xmlns="http://www.w3.org/2000/svg">
<path d="M9.57667 1.21332C9.57667 2.27332 8.71001 3.13999 7.65001 3.13999H4.51667C3.45667 3.13999 2.59001 2.27332 2.59001 1.21332C2.59001 0.839987 2.19001 0.606653 1.85667 0.779987C1.37918 1.03427 0.979867 1.41368 0.701533 1.87757C0.4232 2.34146 0.276334 2.87234 0.276673 3.41332V9.68665C0.276673 11.3267 1.61667 12.6667 3.25667 12.6667H8.91001C10.55 12.6667 11.89 11.3267 11.89 9.68665V3.41332C11.89 2.27332 11.25 1.27999 10.31 0.779987C9.97667 0.606653 9.57667 0.839987 9.57667 1.21332ZM8.31001 6.48665L5.64334 9.15332C5.54334 9.25332 5.41667 9.29999 5.29001 9.29999C5.16334 9.29999 5.03667 9.25332 4.93667 9.15332L3.93667 8.15332C3.84369 8.05923 3.79154 7.93227 3.79154 7.79999C3.79154 7.6677 3.84369 7.54075 3.93667 7.44665C4.13001 7.25332 4.45001 7.25332 4.64334 7.44665L5.29001 8.09332L7.60334 5.77999C7.79667 5.58665 8.11667 5.58665 8.31001 5.77999C8.50334 5.97332 8.50334 6.29332 8.31001 6.48665Z" fill="#9DA3AF"/>
</svg>
