<svg width="121" height="100" viewBox="0 0 121 100" fill="none" xmlns="http://www.w3.org/2000/svg">
<path d="M35.0276 29.9023C35.0276 29.9023 33.6613 28.7848 31.5192 32.0981C29.3771 35.4113 28.4914 37.3704 28.4914 37.3704C28.4914 37.3704 27.9449 38.056 27.4911 37.5241C27.0373 36.9922 26.4835 35.5601 25.6027 35.7187C24.722 35.8773 24.2926 36.8434 24.3145 38.317C24.3365 39.7907 24.2584 43.0258 24.2511 43.3161C24.2438 43.6065 24.0388 44.0066 23.6704 43.6943C23.302 43.382 21.2843 40.6129 20.0279 41.6498C18.7714 42.6867 19.5033 46.7733 19.5741 47.2344C19.6448 47.6955 19.5423 47.8614 19.3301 47.9493C19.1178 48.0371 18.5201 47.0417 17.915 46.278C17.31 45.5144 16.4707 44.7336 15.7973 45.3924C15.1239 46.0511 14.6238 49.0179 16.9708 54.1634L18.2151 56.4763L20.8476 56.5983C26.503 56.5177 28.9721 54.7977 29.2795 53.9145C29.5869 53.0313 28.5231 52.6019 27.5716 52.3799C26.6201 52.1579 25.471 52.053 25.4564 51.8163C25.4417 51.5796 25.5564 51.4113 25.9931 51.282C26.4298 51.1527 30.4481 50.0621 30.8458 48.4836C31.2435 46.905 27.879 46.2658 27.4301 46.0682C26.9812 45.8706 27.2667 45.5095 27.5228 45.3802C27.779 45.2509 30.6726 43.7968 32.0145 43.1844C33.3563 42.572 34.0566 41.8035 33.8126 40.9081C33.5686 40.0127 32.0486 40.1566 31.3728 39.9736C30.697 39.7907 31.0825 38.9977 31.0825 38.9977C31.0825 38.9977 32.4683 37.3631 34.5518 34.006C36.6354 30.6488 34.9959 29.8803 34.9959 29.8803" fill="#B4CEC5"/>
<path d="M17.342 55.8628C18.8815 53.4035 21.6897 49.0753 24.0831 45.3498C26.4766 41.6242 28.6382 38.2476 30.1826 35.7956L32.0173 32.8899L32.5052 32.0994L32.637 31.8944C32.6663 31.8481 32.6833 31.8261 32.6833 31.8261L32.6443 31.8993C32.6126 31.9481 32.5711 32.0189 32.5199 32.1067L32.0319 32.9045C31.6098 33.5974 30.9901 34.5953 30.2192 35.8322C28.6797 38.2939 26.5253 41.673 24.1319 45.401C21.7385 49.129 18.923 53.4523 17.3713 55.892" fill="#BBD0C4"/>
<path d="M62.1789 64.0915C62.191 64.4937 62.1681 64.8961 62.1106 65.2943C61.9618 66.432 61.5895 67.529 61.0151 68.5221L60.9907 68.4782H61.042L61.0176 68.5221L54.1862 80.6405L54.1447 80.7161L54.0959 80.6429L46.8742 69.1199L46.518 68.5514L46.4619 68.4636H46.5668L46.518 68.5514C45.9708 67.6122 45.6019 66.5799 45.4298 65.5066C45.3424 64.9835 45.3057 64.4533 45.3201 63.9232L45.364 63.14C45.403 62.8814 45.442 62.6252 45.4786 62.369C45.8662 60.404 46.9055 58.6271 48.4283 57.326C49.1394 56.7368 49.9411 56.2664 50.8022 55.9329L51.117 55.8158L51.2731 55.7573L51.4341 55.7133L52.0709 55.5474C52.4913 55.4666 52.9169 55.4153 53.3445 55.3937C53.7568 55.3716 54.1702 55.379 54.5814 55.4157C54.7839 55.4328 54.9816 55.4767 55.1792 55.5035L55.472 55.5523C55.5671 55.5718 55.6623 55.6011 55.7574 55.6255L56.3161 55.7768L56.8455 55.9793C56.9334 56.0134 57.0212 56.0427 57.1066 56.0793L57.3506 56.2037L57.8385 56.4477C58.9529 57.0946 59.9109 57.9793 60.6443 59.0387C61.1902 59.8385 61.6022 60.7219 61.8642 61.6542C61.9591 61.9937 62.0308 62.3394 62.0789 62.6887C62.1246 62.9425 62.1523 63.1994 62.1618 63.4572C62.1618 63.6621 62.1618 63.8207 62.1789 63.9329C62.196 64.0452 62.1789 64.094 62.1789 64.094C62.1789 64.094 62.1789 64.0378 62.1789 63.9329C62.1789 63.828 62.1642 63.6646 62.1521 63.4596C62.1374 63.2025 62.1065 62.9467 62.0593 62.6935C62.0066 62.3467 61.9316 62.0036 61.8349 61.6664C61.5696 60.743 61.1577 59.8682 60.615 59.0753C59.8787 58.0268 58.9208 57.1531 57.8093 56.516L57.3213 56.272L57.0773 56.1525C56.9944 56.1135 56.9065 56.0866 56.8187 56.0525L56.2942 55.8524L55.7403 55.706C55.6476 55.6816 55.5549 55.6523 55.4598 55.6328L55.1694 55.5865C54.9742 55.5596 54.7791 55.5182 54.579 55.5011C54.1733 55.4663 53.7656 55.4606 53.3591 55.484C52.9364 55.5056 52.5157 55.5569 52.1002 55.6377L51.4707 55.8036L51.3121 55.8475L51.1584 55.9036L50.8486 56.0208C49.9945 56.349 49.1994 56.8137 48.4942 57.3968C46.9892 58.6858 45.9643 60.4459 45.586 62.391C45.5494 62.635 45.5104 62.896 45.4738 63.1498C45.4372 63.4035 45.4445 63.6646 45.4323 63.9256C45.4184 64.4491 45.4543 64.9728 45.5396 65.4895C45.7105 66.5479 46.0744 67.5659 46.6131 68.4929L46.6644 68.5807H46.5643L46.6131 68.4929C46.7254 68.6734 46.8571 68.8662 46.9669 69.0613L54.1838 80.5917H54.0935C56.9675 75.5365 59.3658 71.3206 60.9663 68.4953L60.9932 68.5392H60.9395L60.9639 68.4953C61.5393 67.5095 61.9187 66.4217 62.0813 65.2919C62.1374 64.904 62.1521 64.6014 62.1667 64.4014C62.1667 64.3013 62.1667 64.2257 62.1667 64.172C62.1667 64.1184 62.1789 64.0915 62.1789 64.0915Z" fill="#0091EA"/>
<path d="M59.1144 63.9846C59.1119 63.9562 59.1119 63.9276 59.1144 63.8992C59.1144 63.8357 59.1144 63.7528 59.0949 63.6552C59.0949 63.5991 59.0949 63.5381 59.0949 63.4698C59.0949 63.4015 59.0729 63.3258 59.0607 63.2453C59.0357 63.06 58.9982 62.8766 58.9485 62.6964C58.8233 62.1987 58.6243 61.7225 58.3581 61.2837C57.7296 60.2268 56.7525 59.4219 55.5948 59.0073C54.4371 58.5928 53.1712 58.5946 52.0147 59.0123C51.7779 59.0965 51.5473 59.1968 51.3242 59.3124C51.0988 59.4359 50.882 59.5745 50.6752 59.7272C50.4646 59.8843 50.2641 60.0546 50.075 60.2371C49.8883 60.4285 49.7147 60.6323 49.5554 60.847C49.2261 61.2914 48.9699 61.7856 48.7966 62.3109C48.4339 63.393 48.4339 64.5639 48.7966 65.6461C48.965 66.1719 49.2189 66.6665 49.548 67.1099C49.7057 67.3262 49.8777 67.5316 50.0628 67.7247C50.2516 67.9074 50.4512 68.0785 50.6606 68.2371C50.8673 68.3906 51.0841 68.5299 51.3096 68.6543C51.5177 68.7643 51.7329 68.8605 51.9537 68.9422C53.1094 69.3645 54.3761 69.372 55.5368 68.9635C56.6975 68.5549 57.6802 67.7557 58.3166 66.7025C58.5872 66.2659 58.7888 65.7903 58.9143 65.2923C58.9659 65.1124 59.0043 64.9289 59.029 64.7433C59.029 64.6628 59.0558 64.5896 59.0656 64.5213V64.3335C59.0656 64.2285 59.0802 64.1432 59.0851 64.0895C59.0825 64.0603 59.0825 64.0309 59.0851 64.0017C59.0884 64.0308 59.0884 64.0603 59.0851 64.0895C59.0851 64.1529 59.0851 64.2359 59.0851 64.3335V64.5213C59.0851 64.5896 59.0656 64.6653 59.0558 64.7458C59.0335 64.9334 58.9984 65.1192 58.9509 65.302C58.8302 65.8066 58.6327 66.2896 58.3654 66.7342C57.727 67.811 56.7324 68.6308 55.5536 69.0518C54.3747 69.4728 53.0858 69.4686 51.9097 69.0398C51.4199 68.8681 50.9598 68.6211 50.5459 68.3078C50.3301 68.148 50.1255 67.9736 49.9335 67.7857C49.7487 67.5878 49.5775 67.3775 49.4212 67.1563C49.0858 66.7049 48.8255 66.2024 48.6502 65.668C48.4748 65.1155 48.3827 64.5399 48.377 63.9602C48.3848 63.3799 48.4802 62.8041 48.66 62.2523C48.837 61.7193 49.099 61.2184 49.4358 60.769C49.5992 60.5493 49.7769 60.3407 49.9677 60.1444C50.1617 59.9593 50.367 59.7866 50.5825 59.6271C50.7942 59.472 51.0159 59.331 51.2461 59.2051C51.475 59.0914 51.7114 58.9936 51.9537 58.9123C53.1317 58.4895 54.4205 58.4917 55.597 58.9185C56.7736 59.3453 57.7641 60.1699 58.3971 61.2496C58.661 61.6968 58.8559 62.1813 58.9753 62.6866C59.0226 62.8684 59.056 63.0536 59.0754 63.2404C59.0754 63.3234 59.0998 63.3966 59.1046 63.4673C59.1095 63.5381 59.1046 63.5966 59.1046 63.6528C59.1046 63.7601 59.1046 63.8455 59.1046 63.9089C59.11 63.9338 59.1132 63.9591 59.1144 63.9846Z" fill="#0091EA"/>
<path d="M53.6688 66.4805L50.563 64.3164L51.3193 63.2331L53.4004 64.6848L56.094 61.2618L57.1309 62.0791L53.6688 66.4805Z" fill="#63B966" fill-opacity="0.3"/>
<path fill-rule="evenodd" clip-rule="evenodd" d="M59.6707 2.37146C60.5785 2.48474 61.4671 2.71858 62.313 3.06679L64.2526 1.4419L67.5854 3.97927L66.5363 6.28241C67.0969 7.00474 67.5596 7.79804 67.9123 8.64167L70.4326 8.8637L70.9962 13.0113L68.6247 13.8969C68.5132 14.81 68.2785 15.7038 67.9269 16.5539L69.5543 18.5057L67.0169 21.8408L64.7138 20.7893C63.992 21.3508 63.1986 21.8136 62.3545 22.1653L62.1325 24.6856L57.9849 25.2492L57.0992 22.8777C56.1898 22.7594 55.3003 22.5198 54.4545 22.1653L52.5027 23.7902L49.17 21.2529L50.2215 18.9497C49.6595 18.2283 49.1967 17.4348 48.8455 16.5905L46.3252 16.3684L45.7616 12.2208L48.1306 11.3327C48.245 10.4257 48.4797 9.53799 48.8284 8.69291L47.2084 6.74353L49.7433 3.40836L52.0489 4.4599C52.7709 3.89873 53.5642 3.436 54.4082 3.08387L54.6302 0.563587L58.7778 0L59.6634 2.37146H59.6707ZM58.4313 8.09517C57.5038 8.12508 56.6083 8.44141 55.8677 9.00071C55.1272 9.56001 54.578 10.3349 54.2955 11.2188C54.013 12.1028 54.011 13.0525 54.29 13.9377C54.5689 14.8228 55.115 15.5998 55.8533 16.1621C56.5915 16.7244 57.4858 17.0443 58.4132 17.078C59.3406 17.1117 60.2557 16.8574 61.0328 16.3501C61.8099 15.8428 62.4109 15.1074 62.7533 14.2449C63.0956 13.3823 63.1626 12.4349 62.9449 11.5328C62.7021 10.5284 62.1208 9.63833 61.2987 9.01225C60.4767 8.38616 59.4641 8.06231 58.4313 8.09517Z" fill="#F5F5F5"/>
<path d="M44.4806 35.3399C44.8392 35.4993 45.169 35.7169 45.4565 35.984C46.2635 36.7065 46.7961 37.6856 46.9642 38.7556C47.0836 39.4952 47.0267 40.2525 46.7983 40.966C46.5327 41.7884 46.0516 42.5247 45.4052 43.0984C45.0591 43.4108 44.6665 43.6676 44.2415 43.8596C43.8019 44.0691 43.3315 44.2066 42.8484 44.267C41.8263 44.4079 40.786 44.2161 39.8813 43.7201C38.9767 43.224 38.2557 42.45 37.8249 41.5125C37.6147 41.0732 37.4771 40.6027 37.4174 40.1194C37.3522 39.6569 37.3579 39.1871 37.4345 38.7263C37.5717 37.8734 37.9338 37.0725 38.4836 36.4061C38.9627 35.8298 39.5713 35.375 40.2597 35.0789C41.2543 34.6434 42.3691 34.5658 43.4144 34.8593C43.7942 34.9623 44.1544 35.1272 44.4806 35.3472C44.4659 35.3765 44.1073 35.1545 43.3875 34.9739C42.3671 34.7273 41.2934 34.8295 40.3378 35.2643C39.688 35.5598 39.1164 36.0035 38.669 36.5598C38.1532 37.1988 37.8165 37.9633 37.6931 38.7751C37.5582 39.672 37.6914 40.5887 38.0762 41.4101C38.4865 42.2916 39.1677 43.0191 40.0204 43.4864C40.8731 43.9538 41.8528 44.1367 42.8166 44.0084C43.2742 43.9533 43.7199 43.8247 44.1366 43.6278C44.541 43.4492 44.9148 43.2079 45.2442 42.913C45.8243 42.4081 46.2688 41.7661 46.5372 41.0455C46.8057 40.325 46.8896 39.5486 46.7813 38.7873C46.6297 37.752 46.1379 36.7966 45.3833 36.0718C44.8441 35.5497 44.461 35.3668 44.4806 35.3399Z" fill="#EBEBEB"/>
<path d="M59.8414 35.9501L56.0134 20.7259L71.5914 20.4673L59.8414 35.9501Z" fill="#C9E2CA"/>
<path d="M66.8888 23.4198L61.5385 30.4713L90.0551 52.1087L95.4055 45.0573L66.8888 23.4198Z" fill="#C9E2CA"/>
<path d="M87.7086 74.8644L89.6872 79.3511C89.6872 79.3511 85.7836 82.8693 86.0764 83.7427L94.9132 80.2172L92.1172 73.1004L87.7086 74.8644Z" fill="#0091EA"/>
<path opacity="0.5" d="M87.7086 74.8644L89.6872 79.3511C89.6872 79.3511 85.7836 82.8693 86.0764 83.7427L94.9132 80.2172L92.1172 73.1004L87.7086 74.8644Z" fill="black"/>
<path d="M94.9131 80.2147L94.6033 79.4999L86.2446 83.1595C86.2446 83.1595 85.9201 83.4865 86.0738 83.7475L94.9131 80.2147Z" fill="#263238"/>
<path d="M103.269 81.2246L105.748 85.4576C105.748 85.4576 102.279 89.3954 102.66 90.2346L111.038 85.7259L107.449 78.9629L103.269 81.2246Z" fill="#0091EA"/>
<path opacity="0.5" d="M103.269 81.2246L105.748 85.4576C105.748 85.4576 102.279 89.3954 102.66 90.2346L111.038 85.7259L107.449 78.9629L103.269 81.2246Z" fill="black"/>
<path d="M111.038 85.7139L110.642 85.0479L102.762 89.62C102.762 89.62 102.477 89.9835 102.659 90.2226L111.038 85.7139Z" fill="#263238"/>
<path d="M92.4613 21.8649L87.0303 22.2894L86.8498 19.2494C86.8498 19.2494 84.654 19.2177 84.332 17.078C84.0099 14.9384 83.683 9.96611 83.683 9.96611C84.8279 9.27141 86.1375 8.89496 87.4765 8.87566C88.8156 8.85636 90.1355 9.1949 91.2999 9.85632L91.6513 10.0564L92.4613 21.8649Z" fill="#FFBE9D"/>
<path d="M86.8424 19.2177C87.8348 19.0975 88.769 18.6847 89.5262 18.032C89.5262 18.032 89.0528 19.7154 86.8863 19.8228L86.8424 19.2177Z" fill="#EB996E"/>
<path d="M91.7001 12.3107C91.7342 12.2887 93.1127 11.6666 93.2713 13.1402C93.4299 14.6139 91.9197 14.4675 91.9123 14.426C91.905 14.3845 91.7001 12.3107 91.7001 12.3107Z" fill="#FFBE9D"/>
<path d="M92.3026 13.8185C92.3026 13.8185 92.3294 13.8332 92.3758 13.8503C92.439 13.8693 92.5072 13.8632 92.5661 13.8332C92.6569 13.7637 92.7275 13.6712 92.7704 13.5652C92.8133 13.4592 92.827 13.3437 92.8101 13.2306C92.8011 13.1042 92.7635 12.9816 92.7003 12.8719C92.6813 12.8275 92.6518 12.7884 92.6144 12.7578C92.5771 12.7272 92.5329 12.7061 92.4856 12.6963C92.4551 12.6918 92.424 12.6981 92.3977 12.7141C92.3714 12.7302 92.3516 12.7549 92.3416 12.7841C92.327 12.8256 92.3416 12.8548 92.3416 12.8573C92.3416 12.8597 92.3075 12.8378 92.3123 12.7743C92.3168 12.7371 92.334 12.7026 92.3611 12.6767C92.379 12.6588 92.4003 12.6448 92.4238 12.6356C92.4473 12.6264 92.4725 12.6221 92.4978 12.6231C92.5595 12.6289 92.6188 12.6503 92.67 12.6853C92.7212 12.7203 92.7627 12.7677 92.7905 12.8231C92.8672 12.9436 92.9133 13.0809 92.9247 13.2232C92.9457 13.3536 92.9277 13.4873 92.873 13.6075C92.8183 13.7278 92.7294 13.8292 92.6173 13.8991C92.5785 13.9163 92.5362 13.9242 92.4939 13.922C92.4515 13.9199 92.4102 13.9079 92.3733 13.8869C92.3075 13.8551 92.2977 13.8234 92.3026 13.8185Z" fill="#EB996E"/>
<path d="M84.6075 13.3331C84.6185 13.4127 84.66 13.485 84.7233 13.5347C84.7865 13.5843 84.8666 13.6074 84.9466 13.599C84.986 13.5969 85.0245 13.5868 85.0599 13.5695C85.0953 13.5521 85.1268 13.5277 85.1525 13.4979C85.1783 13.468 85.1977 13.4333 85.2097 13.3958C85.2217 13.3582 85.226 13.3186 85.2223 13.2794C85.2125 13.1995 85.1718 13.1266 85.1088 13.0764C85.0458 13.0262 84.9657 13.0028 84.8856 13.011C84.8461 13.0135 84.8074 13.0238 84.7719 13.0414C84.7364 13.059 84.7047 13.0836 84.6788 13.1136C84.6529 13.1435 84.6333 13.1784 84.621 13.2161C84.6088 13.2538 84.6042 13.2936 84.6075 13.3331Z" fill="#263238"/>
<path d="M84.5124 12.9235C84.5563 12.9576 84.7564 12.7527 85.0931 12.7088C85.4298 12.6648 85.6884 12.7941 85.7177 12.7478C85.747 12.7014 85.6835 12.66 85.5688 12.599C85.4118 12.5211 85.2348 12.493 85.0614 12.5184C84.89 12.542 84.7304 12.6188 84.6051 12.738C84.5149 12.8307 84.4929 12.9088 84.5124 12.9235Z" fill="#263238"/>
<path d="M87.811 12.9624C87.8219 13.042 87.8635 13.1143 87.9267 13.164C87.99 13.2136 88.0701 13.2367 88.1501 13.2283C88.1894 13.2258 88.2277 13.2156 88.2629 13.1981C88.2982 13.1806 88.3295 13.1563 88.3552 13.1265C88.3809 13.0967 88.4004 13.0621 88.4125 13.0247C88.4246 12.9873 88.4291 12.9479 88.4258 12.9087C88.4154 12.829 88.3745 12.7565 88.3117 12.7065C88.2489 12.6564 88.1691 12.6327 88.0891 12.6403C88.0496 12.6428 88.0109 12.6531 87.9754 12.6707C87.9399 12.6883 87.9082 12.7128 87.8823 12.7428C87.8564 12.7728 87.8368 12.8077 87.8245 12.8454C87.8123 12.8831 87.8077 12.9229 87.811 12.9624Z" fill="#263238"/>
<path d="M87.7598 12.5283C87.8037 12.5648 88.0037 12.3599 88.3404 12.3136C88.6771 12.2672 88.9333 12.3989 88.965 12.355C88.9967 12.3111 88.9308 12.2672 88.8137 12.2062C88.6582 12.1263 88.4816 12.0973 88.3087 12.1232C88.1369 12.147 87.9771 12.2247 87.8525 12.3453C87.7622 12.438 87.7378 12.5136 87.7598 12.5283Z" fill="#263238"/>
<path d="M86.9083 15.1385C86.7267 15.1107 86.5425 15.1042 86.3593 15.119C86.274 15.119 86.191 15.119 86.169 15.0605C86.1522 14.9787 86.1599 14.8939 86.191 14.8165C86.2398 14.6018 86.2935 14.3749 86.3496 14.1407C86.5041 13.5656 86.6118 12.9789 86.6716 12.3865C86.4714 12.9473 86.3164 13.5233 86.2081 14.109L86.0617 14.7872C86.0218 14.8959 86.0218 15.0152 86.0617 15.1239C86.078 15.1519 86.1006 15.1757 86.1277 15.1935C86.1548 15.2112 86.1857 15.2225 86.2178 15.2264C86.2655 15.2337 86.3141 15.2337 86.3618 15.2264C86.5469 15.2204 86.7306 15.1909 86.9083 15.1385Z" fill="#263238"/>
<path d="M87.9086 15.2315C87.8549 15.2315 87.9086 15.5926 87.6329 15.8902C87.3572 16.1879 86.9766 16.2001 86.9815 16.2513C86.9864 16.3025 87.0766 16.3098 87.2377 16.2903C87.4472 16.264 87.6407 16.1646 87.7842 16.0098C87.9225 15.861 87.997 15.6639 87.9915 15.4608C87.9842 15.3095 87.933 15.2266 87.9086 15.2315Z" fill="#263238"/>
<path d="M87.4915 11.2494C87.5378 11.3348 87.8599 11.2494 88.2527 11.2494C88.6455 11.2494 88.9846 11.303 89.0139 11.2152C89.031 11.1737 88.9651 11.0957 88.826 11.0273C88.6438 10.9424 88.4439 10.9022 88.2429 10.9102C88.0419 10.9153 87.8447 10.9671 87.6671 11.0615C87.5354 11.1298 87.4646 11.2103 87.4915 11.2494Z" fill="#263238"/>
<path d="M84.5003 11.9521C84.5686 12.018 84.7857 11.9107 85.0565 11.8667C85.3274 11.8228 85.5689 11.8472 85.6104 11.7618C85.6275 11.7204 85.5811 11.6496 85.4713 11.5935C85.3241 11.5261 85.1597 11.5056 85.0004 11.5349C84.84 11.559 84.6914 11.6333 84.5759 11.7472C84.4905 11.8375 84.4685 11.918 84.5003 11.9521Z" fill="#263238"/>
<path d="M82.4483 8.7588C82.4154 8.62778 82.4158 8.49062 82.4495 8.3598C82.4832 8.22898 82.549 8.10866 82.641 8.00979C82.7379 7.91689 82.8646 7.86127 82.9985 7.85279C83.1325 7.8443 83.2651 7.8835 83.373 7.96343C83.3406 7.87668 83.3267 7.7841 83.3323 7.69167C83.3378 7.59923 83.3626 7.50898 83.4052 7.42671C83.4477 7.34445 83.5069 7.27199 83.5791 7.214C83.6513 7.156 83.7348 7.11376 83.8243 7.08999C84.1708 7.01924 84.5075 7.24126 84.8588 7.28517C85.2032 7.30724 85.5455 7.21738 85.8347 7.029C86.1348 6.85821 86.4056 6.63863 86.7106 6.47761C87.3538 6.13445 88.1066 6.05907 88.8051 6.26785C89.5037 6.47664 90.0916 6.95271 90.441 7.59258C90.6718 7.49896 90.9257 7.47824 91.1687 7.53319C91.4116 7.58815 91.6319 7.71615 91.8 7.9C92.132 8.27602 92.312 8.76224 92.305 9.26383C92.3049 9.59866 92.2681 9.93246 92.1952 10.2593C92.1952 10.2861 92.1952 10.3129 92.2074 10.3422C92.3513 11.5231 92.4123 12.9259 91.9122 13.004C91.0363 13.1406 91.0143 11.4596 91.0143 11.4596C89.8798 11.1961 90.0531 9.52732 89.7505 9.32238C89.448 9.11744 88.8039 8.62705 86.7155 10.0934C85.9306 10.5863 85.0103 10.8194 84.0854 10.7594H84.0268H84.0122H83.9927C83.7822 10.7367 83.5764 10.6815 83.3827 10.5959C83.1543 10.5041 82.9611 10.3417 82.8313 10.1324C82.7692 10.0272 82.7388 9.90616 82.744 9.78404C82.7492 9.66193 82.7897 9.54394 82.8606 9.44437C82.6591 9.26107 82.5158 9.02272 82.4483 8.7588Z" fill="#263238"/>
<path d="M86.8424 21.1112L87.0839 29.6212L92.3783 18.225L92.2465 17.1686L86.8424 21.1112Z" fill="#EBEBEB"/>
<path d="M90.3533 46.5457C90.1606 46.6092 79.1304 57.7565 79.3743 59.7596C79.6183 61.7626 87.4671 76.594 87.4671 76.594L93.0786 73.8346L87.8257 60.8355L87.894 60.0279L94.3131 54.7702L93.9691 46.3188L90.3533 46.5457Z" fill="#263238"/>
<path d="M92.7296 48.744C92.8589 48.9367 94.7668 66.4494 95.2792 67.3545C95.7915 68.2597 103.457 83.2131 103.457 83.2131L109.149 80.9197L102.201 64.4878L102.991 48.9367L102.564 44.5451L93.969 46.3188L92.7296 48.744Z" fill="#263238"/>
<path d="M95.179 67.0571C95.1607 67 95.1484 66.9411 95.1424 66.8815C95.1205 66.7546 95.0936 66.5862 95.0595 66.3764C94.9912 65.9226 94.8936 65.2907 94.7765 64.5149C94.5496 62.9266 94.2373 60.7576 93.8908 58.3618C93.5444 55.9659 93.2614 53.7896 93.0418 52.2038C92.9418 51.4231 92.8588 50.7887 92.7978 50.3349L92.7393 49.825C92.7332 49.7658 92.7332 49.7061 92.7393 49.6469C92.7393 49.6469 92.7539 49.7079 92.7759 49.8226C92.7978 49.9372 92.8246 50.1178 92.8588 50.3276L93.1394 52.1916C93.3687 53.7774 93.681 55.9464 94.025 58.3447C94.369 60.743 94.6569 62.9144 94.8741 64.5027C94.9765 65.281 95.0595 65.9153 95.118 66.3691C95.1424 66.5814 95.1644 66.7522 95.179 66.879C95.185 66.9382 95.185 66.9979 95.179 67.0571Z" fill="#455A64"/>
<path d="M102.057 63.9854C101.985 64.4565 101.874 64.9209 101.725 65.3736C101.614 65.837 101.464 66.29 101.276 66.7277C101.351 66.2596 101.464 65.7985 101.615 65.3492C101.722 64.8825 101.87 64.4261 102.057 63.9854Z" fill="#455A64"/>
<path d="M102.918 67.9524C102.791 67.8269 102.685 67.681 102.606 67.5206C102.181 66.764 101.996 65.896 102.076 65.032C102.082 64.8539 102.119 64.6782 102.184 64.5123C102.049 65.708 102.306 66.9151 102.916 67.9524H102.918Z" fill="#455A64"/>
<path d="M86.0007 58.9449C86.6835 59.2139 87.2435 59.7244 87.5743 60.3795C87.5451 60.399 87.2718 60.0013 86.8424 59.6085C86.413 59.2157 85.9738 58.9766 86.0007 58.9449Z" fill="#455A64"/>
<path d="M86.8546 58.4272C87.0828 58.5847 87.2688 58.7958 87.3962 59.042C87.5599 59.2667 87.6663 59.528 87.7061 59.8032C87.5559 59.5784 87.4182 59.3455 87.2938 59.1054C87.135 58.8876 86.9884 58.6612 86.8546 58.4272Z" fill="#455A64"/>
<path d="M87.6158 32.8785L89.0235 39.8709L90.1702 49.63C90.1702 49.63 94.8985 48.9688 96.9137 48.332C99.251 47.6001 104.336 46.9608 104.336 46.9608L103.477 47.8099C105.297 47.3 106.456 45.5653 106.456 45.5653C103.323 42.6595 100.639 36.6674 100.639 36.6674L98.2556 24.8297C98.2556 24.8297 97.8945 23.1609 97.6749 22.4167C97.4554 21.6726 93.8372 19.2792 93.3346 18.9767L93.0199 18.8278L92.9198 17.8788L92.5465 17.6543L88.6331 21.2139C87.8703 21.9051 87.3855 22.8505 87.2693 23.8733C87.1039 25.3513 87.0468 26.8395 87.0985 28.3259C87.1449 29.7287 87.6158 32.8785 87.6158 32.8785Z" fill="#0091EA"/>
<path d="M90.3045 20.7696C90.3045 20.7696 88.2356 21.8797 87.8769 22.8214C87.5183 23.7632 88.5845 34.0883 88.5845 34.0883L81.1505 34.2298L81.1212 38.658C81.1212 38.658 92.9273 39.5924 93.3884 38.9532C94.0081 38.0895 94.7303 30.0212 94.7303 30.0212L94.9986 24.2145C94.9986 24.2145 94.3228 19.7888 90.3045 20.7696Z" fill="#0091EA"/>
<g opacity="0.3">
<path d="M89.0236 39.8703C89.9852 40.1712 90.9996 40.2652 92.0001 40.146C93.0468 40.0509 94.1129 39.4775 94.5082 38.5016C94.8107 37.7575 94.6839 36.9158 94.7302 36.1131C94.7717 35.4129 94.9425 34.7297 95.0498 34.0393C95.1572 33.3488 94.8058 32.0874 94.5619 31.4165C94.5619 31.4165 94.2984 36.2082 93.5469 38.221C93.4633 38.5021 93.3047 38.7552 93.0882 38.953C92.8223 39.1677 92.4563 39.1969 92.1123 39.2213C91.1633 39.3214 88.8748 39.1555 88.8748 39.1555" fill="black"/>
</g>
<path d="M94.9937 24.849C94.9969 24.8847 94.9969 24.9206 94.9937 24.9563C94.9937 25.0295 94.9937 25.132 94.9815 25.2638C94.9815 25.5419 94.9498 25.9396 94.9254 26.4495C94.901 26.9594 94.8644 27.5962 94.8254 28.3257C94.7863 29.0552 94.7571 29.892 94.6668 30.8094C94.5765 31.7267 94.4911 32.7319 94.3765 33.8103C94.2618 34.8887 94.1325 36.0402 93.9251 37.243C93.8763 37.5505 93.8079 37.8544 93.7202 38.1531C93.6188 38.4657 93.433 38.7443 93.1834 38.9582C92.927 39.1794 92.5972 39.2968 92.2588 39.2876C91.9318 39.2876 91.6025 39.2876 91.2828 39.2876C89.9556 39.2534 88.5845 39.1875 87.1791 39.1095C85.0687 38.9948 83.0315 38.8655 81.1358 38.7289H81.0822V38.6752C81.0822 37.1015 81.0992 35.6206 81.109 34.2519V34.2006H81.1602L88.3356 34.0469L90.3411 34.0128H90.8705C90.9901 34.0128 91.0511 34.0128 91.0511 34.0128C91.0511 34.0128 90.9901 34.0128 90.8705 34.025L90.3435 34.0469L88.3356 34.1104L81.1627 34.308L81.2139 34.2568C81.2139 35.623 81.2139 37.104 81.1993 38.6776L81.1431 38.6191C83.0437 38.7484 85.0785 38.8801 87.1865 38.9948C88.5893 39.0704 89.9605 39.1412 91.2853 39.1753C91.6171 39.1753 91.944 39.1875 92.2612 39.1753C92.5735 39.187 92.8787 39.0798 93.1151 38.8753C93.3482 38.6759 93.5213 38.4158 93.6153 38.1238C93.7012 37.8306 93.7688 37.5324 93.8178 37.2308C94.0251 36.0329 94.1569 34.8813 94.2813 33.8152C94.4057 32.749 94.5009 31.7365 94.5863 30.8191C94.6717 29.9018 94.7132 29.0674 94.7619 28.3379C94.8107 27.6084 94.8498 26.9814 94.8815 26.4641C94.9132 25.9469 94.9425 25.5565 94.962 25.2808C94.962 25.1491 94.9791 25.0369 94.9864 24.971C94.9841 24.9302 94.9865 24.8892 94.9937 24.849Z" fill="#263238"/>
<path d="M82.585 38.592C82.5274 37.8779 82.5103 37.161 82.5338 36.445C82.5176 35.7285 82.5421 35.0117 82.607 34.298C82.6646 35.0121 82.6817 35.7289 82.6582 36.445C82.6743 37.1614 82.6499 37.8783 82.585 38.592Z" fill="#263238"/>
<path d="M81.7994 34.9714C81.7847 34.9714 81.8579 34.8787 81.9994 34.9275C82.0408 34.9419 82.0771 34.968 82.1039 35.0027C82.1308 35.0373 82.147 35.079 82.1507 35.1226C82.1571 35.1771 82.1461 35.2322 82.1194 35.2801C82.0927 35.328 82.0516 35.3663 82.0019 35.3896C81.9523 35.4128 81.8965 35.4198 81.8426 35.4095C81.7887 35.3993 81.7395 35.3723 81.7018 35.3325C81.6704 35.3036 81.6471 35.267 81.6342 35.2263C81.6214 35.1857 81.6195 35.1423 81.6286 35.1007C81.6627 34.9592 81.7603 34.9299 81.7628 34.9445C81.7652 34.9592 81.7164 35.0104 81.714 35.1104C81.7132 35.1367 81.7184 35.1628 81.7289 35.1868C81.7394 35.2108 81.7552 35.2323 81.775 35.2495C81.7987 35.2692 81.8274 35.2821 81.8579 35.2868C81.8884 35.2916 81.9196 35.2879 81.9482 35.2763C81.9752 35.2625 81.9978 35.2416 82.0138 35.2158C82.0297 35.19 82.0382 35.1603 82.0385 35.13C82.0378 35.1044 82.0305 35.0795 82.0172 35.0577C82.0039 35.0358 81.9852 35.0179 81.9628 35.0055C81.8774 34.9543 81.8067 34.986 81.7994 34.9714Z" fill="#263238"/>
<path d="M98.2922 25.8446C98.2922 25.8446 102.162 30.9023 102.633 32.2783C103.103 33.6543 102.74 35.6354 101.952 36.582C101.164 37.5287 100.53 37.1432 100.53 37.1432L98.2922 25.8446Z" fill="#0091EA"/>
<path d="M100.395 36.7378C100.08 36.8516 99.7525 36.9277 99.4194 36.9647C99.0949 37.0412 98.7622 37.0773 98.4288 37.0721C98.744 36.9579 99.0716 36.8817 99.4047 36.8452C99.7292 36.7686 100.062 36.7326 100.395 36.7378Z" fill="#263238"/>
<path d="M101.127 40.4637C101.171 40.5486 101.206 40.6377 101.232 40.7296C101.291 40.9053 101.379 41.1541 101.493 41.4616C101.794 42.2627 102.141 43.0455 102.533 43.8062C102.927 44.5647 103.36 45.3025 103.831 46.0166C104.011 46.2923 104.16 46.5046 104.265 46.6631C104.325 46.7384 104.375 46.8202 104.416 46.9071C104.345 46.8429 104.281 46.7709 104.226 46.6924C104.111 46.5485 103.95 46.3362 103.76 46.0654C103.265 45.3644 102.819 44.6308 102.423 43.8696C102.027 43.1056 101.689 42.3129 101.413 41.4981C101.308 41.1859 101.23 40.9297 101.186 40.7516C101.154 40.6586 101.134 40.5618 101.127 40.4637Z" fill="#263238"/>
<g opacity="0.3">
<path d="M101.396 41.0635C102.01 42.1565 102.64 43.2593 103.572 44.1059C103.924 44.3736 104.244 44.6824 104.523 45.0257C104.767 45.3892 104.882 45.8967 104.643 46.27C104.607 46.3395 104.551 46.3966 104.483 46.4337C104.414 46.4707 104.335 46.4859 104.257 46.4773C104.156 46.4382 104.07 46.3661 104.014 46.2724C102.846 44.7695 101.975 43.0592 101.444 41.2318" fill="black"/>
</g>
<g opacity="0.3">
<path d="M100.883 37.1232C101.413 36.7426 101.598 36.0204 101.52 35.3715C101.442 34.7225 101.144 34.1272 100.878 33.5343C100.075 31.7615 99.4445 29.9149 98.9973 28.0204L98.6191 26.6176L100.532 36.6206L100.883 37.1232Z" fill="black"/>
</g>
<path d="M91.3121 20.3204C91.5404 20.065 91.7848 19.8246 92.0441 19.6007C92.2728 19.3419 92.5172 19.0975 92.776 18.8688C92.6131 19.1728 92.3984 19.4461 92.1416 19.6763C91.9074 19.9405 91.6261 20.1589 91.3121 20.3204Z" fill="#263238"/>
<path d="M90.9217 21.1894C90.9217 21.2114 90.6972 21.2797 90.3557 21.448C89.4591 21.8928 88.7369 22.6245 88.3038 23.5267C88.1379 23.8707 88.0599 24.1 88.0599 24.0952C88.0591 24.0379 88.0682 23.981 88.0867 23.9268C88.1243 23.7777 88.1732 23.6317 88.2331 23.4901C88.6363 22.5423 89.3858 21.7841 90.3288 21.3699C90.4694 21.3083 90.6146 21.2577 90.7631 21.2187C90.814 21.2002 90.8676 21.1903 90.9217 21.1894Z" fill="#263238"/>
<path d="M101.308 38.131C101.283 38.1013 101.263 38.0685 101.247 38.0334L101.093 37.743C100.954 37.4722 100.766 37.1038 100.534 36.6549C100.29 35.5472 99.9514 33.9321 99.5781 32.134C99.2316 30.4286 98.9315 28.894 98.6875 27.7766L98.4436 26.4518C98.4192 26.3078 98.3972 26.1883 98.3801 26.0907C98.37 26.0492 98.3659 26.0065 98.3679 25.9638C98.3843 26.0031 98.3966 26.044 98.4045 26.0858C98.4265 26.1809 98.4558 26.3005 98.4899 26.4444C98.5631 26.7714 98.6631 27.2154 98.7827 27.7595C99.0267 28.8867 99.3438 30.4188 99.7001 32.1096C100.073 33.9077 100.4 35.5253 100.617 36.6403C100.835 37.0965 101.01 37.4698 101.14 37.7455L101.276 38.0456C101.29 38.0729 101.3 38.1015 101.308 38.131Z" fill="#263238"/>
<path d="M88.4575 34.086C88.4264 33.9661 88.4068 33.8436 88.3989 33.72C88.3721 33.4614 88.3355 33.1223 88.2916 32.7149C88.2037 31.8683 88.0915 30.6947 87.9768 29.4016C87.8622 28.1086 87.7646 26.9326 87.6987 26.0811C87.6694 25.6737 87.6475 25.3345 87.6279 25.0759C87.6167 24.9526 87.6167 24.8284 87.6279 24.7051C87.6557 24.8255 87.6745 24.9478 87.6841 25.071C87.7109 25.3297 87.7475 25.6688 87.7938 26.0762C87.8792 26.9228 87.9915 28.0939 88.1061 29.3894C88.2208 30.685 88.3184 31.8585 88.3843 32.7075C88.4136 33.115 88.4355 33.4541 88.455 33.7152C88.4644 33.8386 88.4653 33.9625 88.4575 34.086Z" fill="#263238"/>
<path d="M81.2456 34.7472C81.2456 34.7472 79.6402 33.5273 79.2498 33.4565C78.9497 33.4004 77.1614 33.4321 76.3392 33.4565C76.1855 33.4552 76.0375 33.5143 75.9271 33.6211C75.8166 33.7279 75.7526 33.8738 75.7488 34.0274C75.7464 34.0469 75.7464 34.0665 75.7488 34.086C75.7692 34.1833 75.8167 34.273 75.8857 34.3446C75.9547 34.4162 76.0426 34.467 76.1391 34.491C76.0144 34.531 75.9055 34.6095 75.828 34.715C75.7504 34.8206 75.7082 34.948 75.7073 35.079C75.7073 35.5425 76.2611 35.6401 76.2611 35.6401L76.1806 35.7133C76.1111 35.7837 76.0618 35.8714 76.0376 35.9672C76.0135 36.0631 76.0155 36.1637 76.0434 36.2586C76.0713 36.3534 76.124 36.4391 76.1962 36.5067C76.2684 36.5743 76.3574 36.6213 76.4538 36.6429L76.6978 36.7014C76.6042 36.7394 76.5229 36.8026 76.4631 36.884C76.4032 36.9654 76.3671 37.0618 76.3587 37.1625C76.3587 37.7725 77.7445 37.8945 77.7445 37.8945C77.7445 37.8945 81.1431 38.4337 81.2163 38.4093C81.2895 38.3849 81.2456 34.7472 81.2456 34.7472Z" fill="#FFBE9D"/>
<path d="M76.6539 32.7244C76.6685 32.9269 76.7173 33.3563 77.0589 33.5491L78.9546 33.4759C78.9546 33.4759 77.5444 32.9879 77.3419 32.7439C77.2635 32.644 77.1724 32.5546 77.0711 32.478C77.029 32.4497 76.9798 32.4339 76.9291 32.4324C76.8784 32.4309 76.8284 32.4438 76.7847 32.4695C76.7411 32.4953 76.7056 32.533 76.6825 32.5781C76.6593 32.6232 76.6494 32.6739 76.6539 32.7244Z" fill="#FFBE9D"/>
<path d="M78.0617 33.4563C77.779 33.5233 77.4873 33.5439 77.198 33.5173C76.9087 33.5344 76.6184 33.5139 76.3344 33.4563C76.6184 33.3927 76.9103 33.3721 77.2005 33.3953C77.489 33.3808 77.7781 33.4013 78.0617 33.4563Z" fill="#EB996E"/>
<path d="M77.6371 34.5151C77.3963 34.5927 77.1419 34.6185 76.8905 34.5908C76.6401 34.6001 76.3906 34.5561 76.1586 34.4615C76.4059 34.4346 76.6554 34.4346 76.9027 34.4615C77.1487 34.4516 77.3951 34.4697 77.6371 34.5151Z" fill="#EB996E"/>
<path d="M78.6008 34.3787C78.6301 34.3982 78.6008 34.5007 78.4861 34.569C78.3715 34.6373 78.269 34.63 78.2665 34.5958C78.2641 34.5617 78.3349 34.5202 78.4178 34.4665C78.5008 34.4128 78.5715 34.364 78.6008 34.3787Z" fill="#EB996E"/>
<path d="M77.8445 35.7159C77.3024 35.7794 76.7539 35.7613 76.2172 35.6622C76.4862 35.6087 76.7618 35.5964 77.0345 35.6256C77.3075 35.6153 77.5805 35.6457 77.8445 35.7159Z" fill="#EB996E"/>
<path d="M78.9253 35.2081C78.9399 35.2081 78.9692 35.2423 78.9789 35.3155C78.9894 35.4152 78.9605 35.515 78.8986 35.5938C78.8367 35.6726 78.7465 35.7241 78.6471 35.7376C78.5739 35.7376 78.53 35.7376 78.53 35.7107C78.53 35.6839 78.6935 35.657 78.8008 35.518C78.9082 35.3789 78.896 35.2154 78.9253 35.2081Z" fill="#EB996E"/>
<path d="M78.1324 36.8894C77.8885 36.9193 77.6413 36.9095 77.4005 36.8602C77.1497 36.8514 76.9023 36.8002 76.6686 36.7089C76.9125 36.679 77.1597 36.6889 77.4005 36.7382C77.6511 36.7484 77.8983 36.7995 78.1324 36.8894Z" fill="#EB996E"/>
<path d="M79.1888 36.2912C79.2034 36.2912 79.2278 36.3302 79.2254 36.4059C79.2158 36.4955 79.1802 36.5803 79.1229 36.6498C78.9863 36.8182 78.8301 36.8792 78.8131 36.8548C78.796 36.8304 78.9131 36.7157 79.0278 36.5742C79.1424 36.4327 79.1693 36.2985 79.1888 36.2912Z" fill="#EB996E"/>
<path d="M102.835 47.907C103.17 47.8747 103.494 47.7643 103.779 47.5847C104.064 47.405 104.303 47.1612 104.477 46.8726C104.516 46.8067 104.55 46.7164 104.499 46.6603C104.479 46.6438 104.456 46.6315 104.431 46.6239C104.407 46.6164 104.381 46.6138 104.355 46.6164C103.824 46.6124 103.297 46.7033 102.798 46.8848C102.769 46.8914 102.742 46.9042 102.718 46.9223C102.694 46.9404 102.674 46.9633 102.659 46.9897C102.646 47.0309 102.646 47.0753 102.659 47.1165C102.725 47.3727 102.791 47.6289 102.859 47.8875" fill="#0091EA"/>
<g opacity="0.4">
<path d="M102.835 47.907C103.17 47.8747 103.494 47.7643 103.779 47.5847C104.064 47.405 104.303 47.1612 104.477 46.8726C104.516 46.8067 104.55 46.7164 104.499 46.6603C104.479 46.6438 104.456 46.6315 104.431 46.6239C104.407 46.6164 104.381 46.6138 104.355 46.6164C103.824 46.6124 103.297 46.7033 102.798 46.8848C102.769 46.8914 102.742 46.9042 102.718 46.9223C102.694 46.9404 102.674 46.9633 102.659 46.9897C102.646 47.0309 102.646 47.0753 102.659 47.1165C102.725 47.3727 102.791 47.6289 102.859 47.8875" fill="black"/>
</g>
<path d="M86.8424 21.1113C86.8424 21.1113 86.0617 23.7291 86.2764 23.5803C86.4911 23.4315 86.9571 23.0192 86.9571 23.0192L86.8424 21.1113Z" fill="#EBEBEB"/>
<path d="M86.8863 22.3192L86.4618 23.339C86.4193 23.4446 86.3914 23.5554 86.3788 23.6684C86.3422 23.9539 86.3032 24.476 86.4715 24.5126C86.5568 24.5174 86.642 24.503 86.721 24.4705C86.7999 24.438 86.8706 24.3881 86.9278 24.3247L86.8863 22.3192Z" fill="#263238"/>
<path d="M100.11 22.4799C100.11 22.4799 95.9404 20.8526 93.6299 22.2896C91.3195 23.7266 90.8998 26.02 89.5238 26.02C86.84 26.02 86.9279 24.1267 86.9279 24.1267L86.357 24.3C86.357 24.6879 85.7373 27.4717 88.5528 27.8108C91.3683 28.1499 92.5686 24.3024 95.1109 24.3C96.7013 24.3268 98.2517 24.803 99.583 25.6736L101.41 24.5195L100.11 22.4799Z" fill="#263238"/>
<path d="M89.4164 27.7767C90.1355 27.3482 90.6989 26.7011 91.0242 25.9298C91.6732 24.4342 93.0638 22.7288 94.2252 22.2994C95.3865 21.87 98.0727 21.5675 99.9294 22.7874L101.118 24.3927L99.5756 25.3955C98.7084 24.94 97.7969 24.5746 96.8552 24.3049C94.9376 23.7706 93.7714 24.3757 92.6564 25.4296C92.5881 25.4955 92.5222 25.5614 92.4685 25.6248C91.9297 26.1992 91.3383 26.722 90.7021 27.1863C90.1483 27.5596 89.6604 27.7767 89.4164 27.7767Z" fill="#455A64"/>
<path d="M35.4521 18.3661C32.9782 18.7492 31.1654 16.6583 30.5872 14.8212C30.0529 13.1133 29.7992 11.3347 29.0501 9.69763C28.001 7.42864 25.2246 6.37954 22.7336 6.58936C20.2426 6.79918 17.7296 8.05322 15.524 9.22675L16.134 22.8895C16.134 22.8895 20.933 17.766 23.241 17.683C27.091 17.5293 26.8812 23.8556 30.6189 24.7901C30.6189 24.7901 35.8596 26.21 39.4021 21.6354C41.6491 18.7297 41.8419 15.2018 41.8419 15.2018C41.8419 15.2018 40.1194 17.6464 35.4521 18.3661Z" fill="#0091EA"/>
<path d="M15.4168 6.97223C15.4509 6.97223 16.1243 21.484 16.9197 39.3846C17.715 57.2852 18.3347 71.8019 18.3006 71.8043C18.2664 71.8067 17.5955 57.295 16.7977 39.3895C15.9999 21.484 15.3826 6.97467 15.4168 6.97223Z" fill="#263238"/>
<g opacity="0.2">
<path d="M28.6208 13.8745C29.04 15.3181 29.6522 16.6985 30.4409 17.9782C31.1533 19.0932 32.2342 20.0325 33.5297 20.3033C33.7668 20.3352 33.9994 20.395 34.2226 20.4814C34.3338 20.5267 34.4309 20.6011 34.5034 20.6969C34.576 20.7926 34.6214 20.9061 34.6349 21.0255C34.6349 21.3841 34.2762 21.6184 33.9542 21.7769C33.5069 22.0224 33.0284 22.2062 32.5318 22.3234C32.0439 22.4162 31.6389 22.4698 31.2948 22.0795C30.9621 21.7532 30.6629 21.3944 30.4019 21.0084C29.2723 19.0834 28.7136 16.3314 28.6208 14.1551" fill="black"/>
</g>
<path d="M31.9754 22.6501C31.9754 22.6501 31.9364 22.633 31.8657 22.5866C31.7633 22.5198 31.6647 22.4473 31.5704 22.3695C31.223 22.082 30.916 21.7488 30.658 21.3789C30.2758 20.8299 29.9681 20.2327 29.7431 19.6028C29.4694 18.8344 29.2437 18.0497 29.0672 17.2533C28.7321 15.81 28.5207 14.3409 28.4353 12.8617C28.4036 12.2957 28.3987 11.837 28.3987 11.5198C28.3987 11.371 28.3987 11.2514 28.3987 11.1538C28.3946 11.1117 28.3946 11.0692 28.3987 11.027C28.4097 11.0683 28.4147 11.1111 28.4134 11.1538C28.4134 11.2514 28.4134 11.371 28.428 11.5174C28.4427 11.8345 28.4597 12.2932 28.5036 12.8568C28.6145 14.3272 28.8363 15.7871 29.1673 17.224C29.3463 18.0163 29.5712 18.7975 29.8406 19.5637C30.0618 20.1858 30.3601 20.7776 30.7287 21.3253C30.9767 21.6941 31.2692 22.0309 31.5997 22.328C31.8364 22.5451 31.9828 22.6427 31.9754 22.6501Z" fill="#263238"/>
<path d="M0.5 74.6879L33.1856 80.0383V74.6879H0.5Z" fill="#E0E0E0"/>
<path d="M43.995 85.0283L76.6831 90.3787V85.0283H43.995Z" fill="#E0E0E0"/>
<path d="M81.7651 94.231L114.451 99.5814V94.231H81.7651Z" fill="#E0E0E0"/>
<path d="M33.1856 70.6819H0.5V74.6905H33.1856V70.6819Z" fill="#0091EA"/>
<g opacity="0.3">
<path d="M33.1856 70.6819H22.9849V74.6905H33.1856V70.6819Z" fill="black"/>
</g>
<path d="M76.683 81.0197H43.9973V85.0282H76.683V81.0197Z" fill="#0091EA"/>
<g opacity="0.3">
<path d="M76.6831 81.0197H66.4824V85.0282H76.6831V81.0197Z" fill="black"/>
</g>
<path d="M114.502 90.2225H81.8165V94.2311H114.502V90.2225Z" fill="#0091EA"/>
<g opacity="0.3">
<path d="M114.502 90.2225H104.301V94.2311H114.502V90.2225Z" fill="black"/>
</g>
<path d="M94.3591 75.6351C94.3596 75.8106 94.4121 75.9821 94.51 76.1278C94.6079 76.2735 94.7467 76.387 94.9091 76.4538C95.0714 76.5207 95.2498 76.5379 95.4219 76.5034C95.5941 76.4688 95.7521 76.384 95.876 76.2597C96 76.1355 96.0843 75.9772 96.1184 75.805C96.1525 75.6328 96.1347 75.4544 96.0675 75.2922C96.0002 75.1301 95.8863 74.9915 95.7403 74.8941C95.5943 74.7966 95.4228 74.7446 95.2472 74.7446C95.1304 74.7446 95.0147 74.7676 94.9068 74.8124C94.7989 74.8572 94.7009 74.9228 94.6184 75.0055C94.5359 75.0883 94.4705 75.1864 94.426 75.2945C94.3815 75.4025 94.3588 75.5183 94.3591 75.6351Z" fill="#EBEBEB"/>
</svg>
