<svg width="16" height="16" viewBox="0 0 16 16" fill="none" xmlns="http://www.w3.org/2000/svg">
<path d="M8 16C12.4183 16 16 12.4183 16 8.00003C16 3.58175 12.4183 0 8 0C3.58172 0 0 3.58175 0 8.00003C0 12.4183 3.58172 16 8 16Z" fill="#C1DFC8"/>
<path fill-rule="evenodd" clip-rule="evenodd" d="M8.10429 6.54169C7.70221 6.54169 7.37512 6.86877 7.37512 7.27127C7.37512 7.67335 7.70221 8.00002 8.10429 8.00002C8.50637 8.00002 8.83346 7.67335 8.83346 7.27127C8.83346 6.86877 8.50637 6.54169 8.10429 6.54169ZM8.10429 8.62502C7.35762 8.62502 6.75012 8.01794 6.75012 7.27127C6.75012 6.52419 7.35762 5.91669 8.10429 5.91669C8.85096 5.91669 9.45846 6.52419 9.45846 7.27127C9.45846 8.01794 8.85096 8.62502 8.10429 8.62502Z" fill="black"/>
<mask id="mask0_213_9879" style="mask-type:luminance" maskUnits="userSpaceOnUse" x="4" y="3" width="8" height="9">
<path fill-rule="evenodd" clip-rule="evenodd" d="M4.66663 3.83334H11.5414V11.9583H4.66663V3.83334Z" fill="white"/>
</mask>
<g mask="url(#mask0_213_9879)">
<path fill-rule="evenodd" clip-rule="evenodd" d="M8.10388 4.45834C6.55305 4.45834 5.29138 5.73209 5.29138 7.29709C5.29138 9.28834 7.63472 11.2283 8.10388 11.3317C8.57305 11.2279 10.9164 9.28793 10.9164 7.29709C10.9164 5.73209 9.65472 4.45834 8.10388 4.45834ZM8.10388 11.9583C7.35638 11.9583 4.66638 9.64501 4.66638 7.29709C4.66638 5.38709 6.20847 3.83334 8.10388 3.83334C9.9993 3.83334 11.5414 5.38709 11.5414 7.29709C11.5414 9.64501 8.85138 11.9583 8.10388 11.9583Z" fill="black"/>
</g>
</svg>
