<svg width="16" height="16" viewBox="0 0 16 16" fill="none" xmlns="http://www.w3.org/2000/svg">
<path d="M8 16C12.4183 16 16 12.4183 16 8.00003C16 3.58175 12.4183 0 8 0C3.58172 0 0 3.58175 0 8.00003C0 12.4183 3.58172 16 8 16Z" fill="#C1DFC8"/>
<path fill-rule="evenodd" clip-rule="evenodd" d="M7.90697 8.61034C7.62822 8.61034 7.35031 8.51826 7.11781 8.33409L5.24906 6.82742C5.11447 6.71909 5.09364 6.52201 5.20156 6.38784C5.31031 6.25409 5.50697 6.23284 5.64114 6.34076L7.50822 7.84576C7.74281 8.03159 8.07322 8.03159 8.30947 7.84409L10.1578 6.34159C10.292 6.23201 10.4886 6.25284 10.5978 6.38701C10.7066 6.52076 10.6861 6.71742 10.5524 6.82659L8.70072 8.33159C8.46656 8.51742 8.18656 8.61034 7.90697 8.61034Z" fill="black"/>
<mask id="mask0_213_9859" style="mask-type:luminance" maskUnits="userSpaceOnUse" x="3" y="3" width="10" height="9">
<path fill-rule="evenodd" clip-rule="evenodd" d="M3.41663 3.83334H12.3749V11.9583H3.41663V3.83334Z" fill="white"/>
</mask>
<g mask="url(#mask0_213_9859)">
<path fill-rule="evenodd" clip-rule="evenodd" d="M5.84954 11.3333H9.94121C9.94204 11.3325 9.94538 11.3333 9.94788 11.3333C10.4233 11.3333 10.845 11.1633 11.1683 10.8404C11.5437 10.4667 11.75 9.92959 11.75 9.32834V6.46668C11.75 5.30293 10.9891 4.45834 9.94121 4.45834H5.85038C4.80246 4.45834 4.04163 5.30293 4.04163 6.46668V9.32834C4.04163 9.92959 4.24829 10.4667 4.62329 10.8404C4.94663 11.1633 5.36871 11.3333 5.84371 11.3333H5.84954ZM5.84246 11.9583C5.19954 11.9583 4.62538 11.725 4.18204 11.2833C3.68829 10.7908 3.41663 10.0967 3.41663 9.32834V6.46668C3.41663 4.96543 4.46288 3.83334 5.85038 3.83334H9.94121C11.3287 3.83334 12.375 4.96543 12.375 6.46668V9.32834C12.375 10.0967 12.1033 10.7908 11.6095 11.2833C11.1666 11.7246 10.592 11.9583 9.94788 11.9583H9.94121H5.85038H5.84246Z" fill="black"/>
</g>
</svg>
