<svg width="16" height="16" viewBox="0 0 16 16" fill="none" xmlns="http://www.w3.org/2000/svg">
<g clip-path="url(#clip0_213_9847)">
<rect width="16" height="16" fill="white"/>
<path d="M8 16C12.4183 16 16 12.4183 16 8.00003C16 3.58175 12.4183 0 8 0C3.58172 0 0 3.58175 0 8.00003C0 12.4183 3.58172 16 8 16Z" fill="#FFE6C1"/>
<path d="M7.99995 12.2667C7.15608 12.2667 6.33116 12.0164 5.62951 11.5476C4.92786 11.0788 4.38099 10.4124 4.05806 9.63279C3.73513 8.85316 3.65063 7.99527 3.81526 7.16762C3.97989 6.33997 4.38625 5.57972 4.98296 4.98302C5.57966 4.38631 6.33991 3.97995 7.16756 3.81532C7.99521 3.65069 8.8531 3.73519 9.63273 4.05812C10.4124 4.38105 11.0787 4.92792 11.5475 5.62957C12.0164 6.33122 12.2666 7.15614 12.2666 8.00001C12.2666 9.1316 11.8171 10.2168 11.0169 11.017C10.2168 11.8172 9.13154 12.2667 7.99995 12.2667ZM7.99995 4.44445C7.29672 4.44445 6.60929 4.65298 6.02458 5.04367C5.43988 5.43436 4.98415 5.98966 4.71504 6.63935C4.44593 7.28905 4.37552 8.00395 4.51271 8.69366C4.6499 9.38337 4.98853 10.0169 5.48579 10.5142C5.98304 11.0114 6.61658 11.3501 7.30629 11.4872C7.996 11.6244 8.7109 11.554 9.3606 11.2849C10.0103 11.0158 10.5656 10.5601 10.9563 9.97537C11.347 9.39066 11.5555 8.70323 11.5555 8.00001C11.5555 7.05701 11.1809 6.15264 10.5141 5.48585C9.84731 4.81905 8.94294 4.44445 7.99995 4.44445Z" fill="#F3B75C"/>
<path d="M9.77774 9.95559C9.68962 9.95536 9.60473 9.92241 9.53952 9.86314L7.76174 8.26314C7.72491 8.2299 7.69544 8.18932 7.67523 8.144C7.65503 8.09869 7.64453 8.04965 7.64441 8.00003V6.22225C7.64441 6.12796 7.68187 6.03752 7.74855 5.97084C7.81523 5.90416 7.90567 5.8667 7.99996 5.8667C8.09426 5.8667 8.1847 5.90416 8.25138 5.97084C8.31806 6.03752 8.35552 6.12796 8.35552 6.22225V7.84003L10.016 9.33337C10.0703 9.38131 10.1087 9.44472 10.1261 9.5151C10.1434 9.58549 10.1388 9.65948 10.1129 9.72717C10.0869 9.79487 10.041 9.85302 9.98106 9.89384C9.92116 9.93467 9.85022 9.95621 9.77774 9.95559Z" fill="#F3B75C"/>
</g>
<defs>
<clipPath id="clip0_213_9847">
<rect width="16" height="16" fill="white"/>
</clipPath>
</defs>
</svg>
