<svg width="16" height="16" viewBox="0 0 16 16" fill="none" xmlns="http://www.w3.org/2000/svg">
<path d="M8 16C12.4183 16 16 12.4183 16 8.00003C16 3.58175 12.4183 0 8 0C3.58172 0 0 3.58175 0 8.00003C0 12.4183 3.58172 16 8 16Z" fill="#C1DFC8"/>
<mask id="mask0_213_9869" style="mask-type:luminance" maskUnits="userSpaceOnUse" x="4" y="3" width="8" height="10">
<path fill-rule="evenodd" clip-rule="evenodd" d="M4.00012 3.56073H11.5791V12.3845H4.00012V3.56073Z" fill="white"/>
</mask>
<g mask="url(#mask0_213_9869)">
<path fill-rule="evenodd" clip-rule="evenodd" d="M6.03261 4.2274C5.29617 4.2274 4.68461 4.82384 4.66728 5.5594V10.3127C4.65083 11.0741 5.25083 11.7012 6.00461 11.7181H9.58861C10.3304 11.6874 10.9179 11.071 10.9126 10.3154V6.37317L8.85261 4.2274H6.03795H6.03261ZM6.03795 12.3847H5.9895C4.86861 12.3594 3.97617 11.427 4.00061 10.3056V5.5514C4.02639 4.44873 4.93706 3.56073 6.03172 3.56073H6.03928H8.99483C9.0855 3.56073 9.17217 3.59762 9.23528 3.66295L11.4864 6.00829C11.5459 6.07006 11.5793 6.15317 11.5793 6.23895V10.3127C11.5873 11.4278 10.7188 12.339 9.60195 12.3843L6.03795 12.3847Z" fill="#31AC45"/>
</g>
<path fill-rule="evenodd" clip-rule="evenodd" d="M11.2438 6.65966H10.0193C9.20601 6.65744 8.54468 5.99433 8.54468 5.18189V3.889C8.54468 3.705 8.69401 3.55566 8.87801 3.55566C9.06201 3.55566 9.21134 3.705 9.21134 3.889V5.18189C9.21134 5.62811 9.57446 5.99166 10.0202 5.993H11.2438C11.4278 5.993 11.5771 6.14233 11.5771 6.32633C11.5771 6.51033 11.4278 6.65966 11.2438 6.65966Z" fill="#31AC45"/>
<path fill-rule="evenodd" clip-rule="evenodd" d="M8.79498 9.82594H6.39498C6.21098 9.82594 6.06165 9.6766 6.06165 9.4926C6.06165 9.3086 6.21098 9.15927 6.39498 9.15927H8.79498C8.97898 9.15927 9.12831 9.3086 9.12831 9.4926C9.12831 9.6766 8.97898 9.82594 8.79498 9.82594Z" fill="#31AC45"/>
<path fill-rule="evenodd" clip-rule="evenodd" d="M7.88617 8.15837H6.39461C6.21061 8.15837 6.06128 8.00903 6.06128 7.82503C6.06128 7.64103 6.21061 7.4917 6.39461 7.4917H7.88617C8.07017 7.4917 8.2195 7.64103 8.2195 7.82503C8.2195 8.00903 8.07017 8.15837 7.88617 8.15837Z" fill="#31AC45"/>
</svg>
