<svg width="13" height="13" viewBox="0 0 13 13" fill="none" xmlns="http://www.w3.org/2000/svg">
<mask id="mask0_847_1635" style="mask-type:luminance" maskUnits="userSpaceOnUse" x="1" y="0" width="11" height="13">
<path fill-rule="evenodd" clip-rule="evenodd" d="M1.5 0.581482H11.5022V12.5815H1.5V0.581482Z" fill="white"/>
</mask>
<g mask="url(#mask0_847_1635)">
<path fill-rule="evenodd" clip-rule="evenodd" d="M6.50116 1.46554C6.00125 1.46554 2.84732 2.57619 2.48359 2.8798C2.3763 2.98768 2.37217 3.17514 2.39516 4.43023C2.40577 5.03507 2.42051 5.85686 2.42051 6.99463C2.42051 10.0607 5.79374 11.4219 6.50057 11.6725C7.20681 11.4207 10.5818 10.0519 10.5818 6.99463C10.5818 5.85568 10.5965 5.03331 10.6077 4.42846C10.6301 3.17455 10.626 2.98709 10.5122 2.8739C10.1556 2.57619 7.00107 1.46554 6.50116 1.46554ZM6.50113 12.5815C6.45809 12.5815 6.41506 12.5756 6.3732 12.5627C6.17571 12.5031 1.5362 11.0517 1.5362 6.99467C1.5362 5.86456 1.52147 5.0469 1.51086 4.44677C1.48374 2.94763 1.47784 2.63518 1.86516 2.24846C2.32793 1.78451 5.83261 0.581299 6.50113 0.581299C7.16905 0.581299 10.6737 1.78451 11.1377 2.24846C11.5244 2.63518 11.5185 2.94763 11.4914 4.445C11.4808 5.04513 11.4661 5.86279 11.4661 6.99467C11.4661 11.0517 6.82654 12.5031 6.62905 12.5627C6.5872 12.5756 6.54416 12.5815 6.50113 12.5815Z" fill="#0091EA"/>
</g>
<path fill-rule="evenodd" clip-rule="evenodd" d="M6.08466 7.96169C5.96734 7.96169 5.85474 7.91512 5.77162 7.832L4.65625 6.71545C4.48411 6.54272 4.48411 6.26211 4.65684 6.08997C4.82898 5.91724 5.10959 5.91724 5.28232 6.08997L6.08466 6.89349L8.07015 4.90799C8.24288 4.73526 8.52231 4.73526 8.69504 4.90799C8.86777 5.08072 8.86777 5.36074 8.69504 5.53347L6.3971 7.832C6.31457 7.91512 6.20197 7.96169 6.08466 7.96169Z" fill="#0091EA"/>
</svg>
