<svg width="13" height="9" viewBox="0 0 13 9" fill="none" xmlns="http://www.w3.org/2000/svg">
<path d="M9.74115 0H9.48626H9.44627H9.32132H4.1085H3.52374H3.25385C1.60454 0 0.5 1.15452 0.5 2.8738V4.02332V4.0833V5.29279C0.5 7.01208 1.60454 8.1666 3.25385 8.1666H3.44877V7.4369H3.25385C2.02436 7.4369 1.2297 6.59725 1.2297 5.29279V4.0883V4.02832V3.02374H2.75906H5.38297C5.55789 3.02374 5.69284 2.89879 5.73282 2.73886C5.74282 2.71387 5.74781 2.68888 5.74781 2.65889C5.74781 2.60891 5.73782 2.55893 5.71783 2.51895C5.66285 2.389 5.5329 2.29404 5.38297 2.29404H1.29467C1.49958 1.32945 2.21928 0.729696 3.25385 0.729696H3.52874H4.11349H9.32632H9.45127H9.49125H9.74615C10.9756 0.729696 11.7703 1.56935 11.7703 2.8738V3.06372V3.08871V5.29779C11.7703 6.60225 10.9756 7.4419 9.74615 7.4419H9.45627C9.3813 7.4419 9.31633 7.46689 9.26135 7.50687V8.10662C9.31633 8.14161 9.3813 8.17159 9.45627 8.17159H9.74615C10.3559 8.17159 10.8907 8.01166 11.3255 7.72178C12.0602 7.23199 12.5 6.37734 12.5 5.29279V3.09371V3.06372V2.8738C12.495 1.15452 11.3905 0 9.74115 0Z" fill="white"/>
</svg>
