<svg width="13" height="9" viewBox="0 0 13 9" fill="none" xmlns="http://www.w3.org/2000/svg">
<path d="M9.08643 8.3932C9.08643 8.52314 9.1564 8.6281 9.25636 8.69307V8.09332C9.1564 8.1583 9.08643 8.26325 9.08643 8.3932Z" fill="#0091EA"/>
<path d="M3.51876 8.02838H3.05396L3.40881 8.75808H3.51876C3.71868 8.75808 3.88361 8.59315 3.88361 8.39323C3.88361 8.19331 3.71868 8.02838 3.51876 8.02838Z" fill="#0091EA"/>
<path d="M9.74115 0.581482H9.48626H9.44627H9.32132H4.1085H3.52374H3.25385C1.60454 0.581482 0.5 1.736 0.5 3.45528V4.60481V4.66478V5.87428C0.5 7.59356 1.60454 8.74808 3.25385 8.74808H3.44877V8.01838H3.25385C2.02436 8.01838 1.2297 7.17873 1.2297 5.87428V4.66978V4.6098V3.60522H2.75906H5.38297C5.55789 3.60522 5.69284 3.48027 5.73282 3.32034C5.74282 3.29535 5.74781 3.27036 5.74781 3.24037C5.74781 3.19039 5.73782 3.14042 5.71783 3.10043C5.66285 2.97049 5.5329 2.87553 5.38297 2.87553H1.29467C1.49958 1.91093 2.21928 1.31118 3.25385 1.31118H3.52874H4.11349H9.32632H9.45127H9.49125H9.74615C10.9756 1.31118 11.7703 2.15083 11.7703 3.45528V3.64521V3.67019V5.87927C11.7703 7.18373 10.9756 8.02338 9.74615 8.02338H9.45627C9.3813 8.02338 9.31633 8.04837 9.26135 8.08835V8.6881C9.31633 8.72309 9.3813 8.75308 9.45627 8.75308H9.74615C10.3559 8.75308 10.8907 8.59314 11.3255 8.30326C12.0602 7.81347 12.5 6.95882 12.5 5.87428V3.67519V3.64521V3.45528C12.495 1.736 11.3905 0.581482 9.74115 0.581482Z" fill="#0091EA"/>
</svg>
