<svg width="13" height="12" viewBox="0 0 13 12" fill="none" xmlns="http://www.w3.org/2000/svg">
<path d="M5.25 6.875C5.25 7.36 5.625 7.75 6.085 7.75H7.025C7.425 7.75 7.75 7.41 7.75 6.985C7.75 6.53 7.55 6.365 7.255 6.26L5.75 5.735C5.455 5.63 5.255 5.47 5.255 5.01C5.255 4.59 5.58 4.245 5.98 4.245H6.92C7.38 4.245 7.755 4.635 7.755 5.12M6.5 3.75V8.25" stroke="#0091EA" stroke-width="0.6" stroke-linecap="round" stroke-linejoin="round"/>
<path d="M11.5 6C11.5 8.76 9.26 11 6.5 11C3.74 11 1.5 8.76 1.5 6C1.5 3.24 3.74 1 6.5 1" stroke="#0091EA" stroke-width="0.6" stroke-linecap="round" stroke-linejoin="round"/>
<path d="M9 1.5V3.5M9 3.5H11M9 3.5L11.5 1" stroke="#0091EA" stroke-width="0.6" stroke-linecap="round" stroke-linejoin="round"/>
</svg>
