<svg width="13" height="13" viewBox="0 0 13 13" fill="none" xmlns="http://www.w3.org/2000/svg">
<mask id="mask0_847_7504" style="mask-type:luminance" maskUnits="userSpaceOnUse" x="2" y="1" width="9" height="11">
<path fill-rule="evenodd" clip-rule="evenodd" d="M2.00012 1.58728H10.5265V11.514H2.00012V1.58728Z" fill="white"/>
</mask>
<g mask="url(#mask0_847_7504)">
<path fill-rule="evenodd" clip-rule="evenodd" d="M4.28667 2.33728C3.45817 2.33728 2.77017 3.00828 2.75067 3.83578V9.18328C2.73217 10.0398 3.40717 10.7453 4.25517 10.7643H8.28717C9.12167 10.7298 9.78267 10.0363 9.77667 9.18628V4.75128L7.45917 2.33728H4.29267H4.28667ZM4.29267 11.5143H4.23817C2.97717 11.4858 1.97317 10.4368 2.00067 9.17528V3.82678C2.02967 2.58628 3.05417 1.58728 4.28567 1.58728H4.29417H7.61917C7.72117 1.58728 7.81867 1.62878 7.88967 1.70228L10.4222 4.34078C10.4892 4.41028 10.5267 4.50378 10.5267 4.60028V9.18328C10.5357 10.4378 9.55867 11.4628 8.30217 11.5138L4.29267 11.5143Z" fill="white"/>
</g>
<path fill-rule="evenodd" clip-rule="evenodd" d="M10.1492 5.0736H8.77167C7.85667 5.0711 7.11267 4.3251 7.11267 3.4111V1.9566C7.11267 1.7496 7.28067 1.5816 7.48767 1.5816C7.69467 1.5816 7.86267 1.7496 7.86267 1.9566V3.4111C7.86267 3.9131 8.27117 4.3221 8.77267 4.3236H10.1492C10.3562 4.3236 10.5242 4.4916 10.5242 4.6986C10.5242 4.9056 10.3562 5.0736 10.1492 5.0736Z" fill="white"/>
<path fill-rule="evenodd" clip-rule="evenodd" d="M7.39434 8.63568H4.69434C4.48734 8.63568 4.31934 8.46768 4.31934 8.26068C4.31934 8.05368 4.48734 7.88568 4.69434 7.88568H7.39434C7.60134 7.88568 7.76934 8.05368 7.76934 8.26068C7.76934 8.46768 7.60134 8.63568 7.39434 8.63568Z" fill="white"/>
<path fill-rule="evenodd" clip-rule="evenodd" d="M6.37185 6.75964H4.69385C4.48685 6.75964 4.31885 6.59164 4.31885 6.38464C4.31885 6.17764 4.48685 6.00964 4.69385 6.00964H6.37185C6.57885 6.00964 6.74685 6.17764 6.74685 6.38464C6.74685 6.59164 6.57885 6.75964 6.37185 6.75964Z" fill="white"/>
</svg>
