<svg width="57" height="56" viewBox="0 0 57 56" fill="none" xmlns="http://www.w3.org/2000/svg">
<path d="M51.4082 25.673V28.0148C51.4057 34.3401 48.8399 40.0622 44.6883 44.2087C40.5368 48.3552 34.8121 50.9133 28.4868 50.9082C22.1615 50.9031 16.4368 48.3399 12.2929 44.1883C8.14897 40.0368 5.58828 34.3147 5.59083 27.9868C5.59337 21.6589 8.15915 15.9394 12.3107 11.7929C16.4623 7.64642 22.1869 5.08828 28.5123 5.09083C31.8977 5.09337 35.0947 5.82645 37.8005 7.06352C39.0783 7.64897 40.5902 7.08388 41.1731 5.80609C41.756 4.52829 41.1935 3.01632 39.9157 2.43342C36.5379 0.8909 32.6205 0.0025516 28.5148 6.19386e-06C20.7844 -0.00508463 13.7794 3.12832 8.7115 8.18859C3.64359 13.2489 0.505097 20.2538 0.500006 27.9843C0.494915 35.7147 3.62832 42.7196 8.68859 47.7875C13.7489 52.8555 20.7513 55.9965 28.4817 55.999C36.2121 56.0016 43.2171 52.8707 48.285 47.8105C53.3529 42.7502 56.494 35.7478 56.499 28.0148V25.673C56.499 24.268 55.3587 23.1276 53.9536 23.1276C52.5486 23.1276 51.4082 24.268 51.4082 25.673ZM52.154 5.85191L28.4995 29.5293L22.6629 23.6952C21.6676 22.7 20.0564 22.7 19.0637 23.6952C18.071 24.6905 18.0684 26.3017 19.0637 27.2944L26.6999 34.9307C27.6952 35.9259 29.3064 35.9234 30.3017 34.9307L55.7558 9.45112C56.7485 8.45586 56.7485 6.84462 55.7532 5.85191C54.758 4.8592 53.1467 4.8592 52.154 5.85445V5.85191Z" fill="#00C853"/>
</svg>
