<svg width="16" height="16" viewBox="0 0 16 16" fill="none" xmlns="http://www.w3.org/2000/svg">
<path fill-rule="evenodd" clip-rule="evenodd" d="M16 8C16 3.5888 12.4111 0 8 0C3.5888 0 0 3.5888 0 8C0 12.4112 3.5888 16 8 16C12.4112 16 16 12.4112 16 8ZM9 13C9 12.4477 8.55228 12 8 12C7.44772 12 7 12.4477 7 13C7 13.5523 7.44772 14 8 14C8.55228 14 9 13.5523 9 13ZM11 6.04762C11 4.36716 9.6542 3 8 3C6.3458 3 5 4.36716 5 6.04762C5 6.46842 5.33578 6.80952 5.75 6.80952C6.12971 6.80952 6.44349 6.5229 6.49315 6.15101L6.50614 5.90912C6.57524 5.13355 7.21885 4.52381 8 4.52381C8.8271 4.52381 9.5 5.20739 9.5 6.04762C9.5 6.88785 8.8271 7.57143 8 7.57143C7.58578 7.57143 7.25 7.91253 7.25 8.33333V10.2381L7.25685 10.3415C7.30651 10.7134 7.62029 11 8 11C8.41422 11 8.75 10.6589 8.75 10.2381V8.99882L8.91663 8.94978C10.1239 8.55536 11 7.40347 11 6.04762Z" fill="#16A34A"/>
</svg>
