<?xml version="1.0" encoding="UTF-8"?>
<svg xmlns="http://www.w3.org/2000/svg" xmlns:xlink="http://www.w3.org/1999/xlink" width="0" height="0">
<symbol id="back" width="11" height="20" viewBox="0 0 11 20" fill="none">
<path d="M0.283445 19.7166C-0.0601247 19.373 -0.0913583 18.8354 0.189744 18.4565L0.283445 18.348L8.63097 10L0.283445 1.65204C-0.0601247 1.30847 -0.0913583 0.77084 0.189744 0.391985L0.283445 0.283445C0.627015 -0.0601234 1.16465 -0.0913582 1.5435 0.189745L1.65204 0.283445L10.6843 9.3157C11.0279 9.65927 11.0591 10.1969 10.778 10.5758L10.6843 10.6843L1.65204 19.7166C1.27411 20.0945 0.661372 20.0945 0.283445 19.7166Z" fill="#404040"/>
</symbol>

<symbol id="camera" width="55" height="54" viewBox="0 0 55 54" fill="none">
<circle cx="27.5" cy="27" r="25" stroke="#0091EA" stroke-width="4"/>
</symbol>

<symbol id="close" width="24" height="24" viewBox="0 0 24 24" fill="none">
<path d="M11.9998 13.4L7.0998 18.3C6.91647 18.4833 6.68314 18.575 6.3998 18.575C6.11647 18.575 5.88314 18.4833 5.6998 18.3C5.51647 18.1167 5.4248 17.8833 5.4248 17.6C5.4248 17.3167 5.51647 17.0833 5.6998 16.9L10.5998 12L5.6998 7.09999C5.51647 6.91665 5.4248 6.68332 5.4248 6.39999C5.4248 6.11665 5.51647 5.88332 5.6998 5.69999C5.88314 5.51665 6.11647 5.42499 6.3998 5.42499C6.68314 5.42499 6.91647 5.51665 7.0998 5.69999L11.9998 10.6L16.8998 5.69999C17.0831 5.51665 17.3165 5.42499 17.5998 5.42499C17.8831 5.42499 18.1165 5.51665 18.2998 5.69999C18.4831 5.88332 18.5748 6.11665 18.5748 6.39999C18.5748 6.68332 18.4831 6.91665 18.2998 7.09999L13.3998 12L18.2998 16.9C18.4831 17.0833 18.5748 17.3167 18.5748 17.6C18.5748 17.8833 18.4831 18.1167 18.2998 18.3C18.1165 18.4833 17.8831 18.575 17.5998 18.575C17.3165 18.575 17.0831 18.4833 16.8998 18.3L11.9998 13.4Z" fill="#272A30"/>
</symbol>

<symbol id="close_select" width="20" height="20" viewBox="0 0 20 20" fill="none">
<path d="M11.4142 10L13.5355 12.1213C13.9261 12.5118 13.9261 13.145 13.5355 13.5355C13.145 13.9261 12.5118 13.9261 12.1213 13.5355L10 11.4142L7.87868 13.5355C7.48815 13.9261 6.85499 13.9261 6.46447 13.5355C6.07394 13.145 6.07394 12.5118 6.46447 12.1213L8.58579 10L6.46447 7.87868C6.07394 7.48815 6.07394 6.85499 6.46447 6.46447C6.85499 6.07394 7.48815 6.07394 7.87868 6.46447L10 8.58579L12.1213 6.46447C12.5118 6.07394 13.145 6.07394 13.5355 6.46447C13.9261 6.85499 13.9261 7.48815 13.5355 7.87868L11.4142 10ZM2.92893 17.0711C-0.976311 13.1658 -0.976311 6.83418 2.92893 2.92893C6.83418 -0.976311 13.1658 -0.976311 17.0711 2.92893C20.9763 6.83418 20.9763 13.1658 17.0711 17.0711C13.1658 20.9763 6.83418 20.9763 2.92893 17.0711ZM4.34315 15.6569C7.46734 18.781 12.5327 18.781 15.6569 15.6569C18.781 12.5327 18.781 7.46734 15.6569 4.34315C12.5327 1.21895 7.46734 1.21895 4.34315 4.34315C1.21895 7.46734 1.21895 12.5327 4.34315 15.6569Z" fill="#404040"/>
</symbol>

<symbol id="info" width="16" height="16" viewBox="0 0 16 16" fill="none">
<path fill-rule="evenodd" clip-rule="evenodd" d="M0 7.99902C0 3.58782 3.5888 -0.000976562 8 -0.000976562C12.4111 -0.000976562 16 3.58782 16 7.99902C16 12.4102 12.4112 15.999 8 15.999C3.5888 15.999 0 12.4102 0 7.99902ZM8.99327 11.8817C8.93551 11.3817 8.51284 10.999 8 10.999L7.88267 11.0058C7.38272 11.0635 7 11.4862 7 11.999C7 12.5552 7.44772 12.999 8 12.999L8.11733 12.9923C8.61728 12.9345 9 12.5119 9 11.999L8.99327 11.8817ZM9 4.00195C9 3.4369 8.55228 2.99902 8 2.99902L7.88267 3.00577C7.38272 3.0637 7 3.48762 7 4.00195V8.99609C7 9.56114 7.44772 9.99902 8 9.99902L8.11733 9.99228C8.61728 9.93434 9 9.51043 9 8.99609V4.00195Z" fill="#16A34A"/>
</symbol>

<symbol id="reg_step_1_done" width="14" height="14" viewBox="0 0 14 14" fill="none">
<path d="M12.6667 5.79331H10.74C9.16002 5.79331 7.87335 4.50665 7.87335 2.92665V0.99998C7.87335 0.633313 7.57335 0.333313 7.20669 0.333313H4.38002C2.32669 0.333313 0.666687 1.66665 0.666687 4.04665V9.95331C0.666687 12.3333 2.32669 13.6666 4.38002 13.6666H9.62002C11.6734 13.6666 13.3334 12.3333 13.3334 9.95331V6.45998C13.3334 6.09331 13.0334 5.79331 12.6667 5.79331ZM6.66669 10.8333H4.00002C3.72669 10.8333 3.50002 10.6066 3.50002 10.3333C3.50002 10.06 3.72669 9.83331 4.00002 9.83331H6.66669C6.94002 9.83331 7.16669 10.06 7.16669 10.3333C7.16669 10.6066 6.94002 10.8333 6.66669 10.8333ZM8.00002 8.16665H4.00002C3.72669 8.16665 3.50002 7.93998 3.50002 7.66665C3.50002 7.39331 3.72669 7.16665 4.00002 7.16665H8.00002C8.27335 7.16665 8.50002 7.39331 8.50002 7.66665C8.50002 7.93998 8.27335 8.16665 8.00002 8.16665Z" fill="#0091EA"/>
</symbol>

<symbol id="reg_step_3" width="12" height="13" viewBox="0 0 12 13" fill="none">
<path d="M9.57667 1.21332C9.57667 2.27332 8.71001 3.13999 7.65001 3.13999H4.51667C3.45667 3.13999 2.59001 2.27332 2.59001 1.21332C2.59001 0.839987 2.19001 0.606653 1.85667 0.779987C1.37918 1.03427 0.979867 1.41368 0.701533 1.87757C0.4232 2.34146 0.276334 2.87234 0.276673 3.41332V9.68665C0.276673 11.3267 1.61667 12.6667 3.25667 12.6667H8.91001C10.55 12.6667 11.89 11.3267 11.89 9.68665V3.41332C11.89 2.27332 11.25 1.27999 10.31 0.779987C9.97667 0.606653 9.57667 0.839987 9.57667 1.21332ZM8.31001 6.48665L5.64334 9.15332C5.54334 9.25332 5.41667 9.29999 5.29001 9.29999C5.16334 9.29999 5.03667 9.25332 4.93667 9.15332L3.93667 8.15332C3.84369 8.05923 3.79154 7.93227 3.79154 7.79999C3.79154 7.6677 3.84369 7.54075 3.93667 7.44665C4.13001 7.25332 4.45001 7.25332 4.64334 7.44665L5.29001 8.09332L7.60334 5.77999C7.79667 5.58665 8.11667 5.58665 8.31001 5.77999C8.50334 5.97332 8.50334 6.29332 8.31001 6.48665Z" fill="#9DA3AF"/>
</symbol>

<symbol id="reg_step_3_done" width="12" height="13" viewBox="0 0 12 13" fill="none">
<path d="M9.57686 1.21332C9.57686 2.27332 8.71019 3.13999 7.65019 3.13999H4.51686C3.45686 3.13999 2.59019 2.27332 2.59019 1.21332C2.59019 0.839987 2.19019 0.606653 1.85686 0.779987C1.37936 1.03427 0.98005 1.41368 0.701717 1.87757C0.423383 2.34146 0.276517 2.87234 0.276856 3.41332V9.68665C0.276856 11.3267 1.61686 12.6667 3.25686 12.6667H8.91019C10.5502 12.6667 11.8902 11.3267 11.8902 9.68665V3.41332C11.8902 2.27332 11.2502 1.27999 10.3102 0.779987C9.97686 0.606653 9.57686 0.839987 9.57686 1.21332ZM8.31019 6.48665L5.64352 9.15332C5.54352 9.25332 5.41686 9.29999 5.29019 9.29999C5.16352 9.29999 5.03686 9.25332 4.93686 9.15332L3.93686 8.15332C3.84387 8.05923 3.79172 7.93227 3.79172 7.79999C3.79172 7.6677 3.84387 7.54075 3.93686 7.44665C4.13019 7.25332 4.45019 7.25332 4.64352 7.44665L5.29019 8.09332L7.60352 5.77999C7.79686 5.58665 8.11686 5.58665 8.31019 5.77999C8.50352 5.97332 8.50352 6.29332 8.31019 6.48665Z" fill="#0091EA"/>
</symbol>

<symbol id="reg_step_4" width="14" height="12" viewBox="0 0 14 12" fill="none">
<path d="M13.4166 3.03199C13.4166 3.47199 13.0566 3.83199 12.6166 3.83199H0.883313C0.443313 3.83199 0.083313 3.47199 0.083313 3.03199V3.02532C0.083313 1.49865 1.31665 0.26532 2.84331 0.26532H10.65C12.1766 0.26532 13.4166 1.50532 13.4166 3.03199ZM0.083313 5.63332V8.97332C0.083313 10.5 1.31665 11.7333 2.84331 11.7333H10.65C12.1766 11.7333 13.4166 10.4933 13.4166 8.96665V5.63332C13.4166 5.19332 13.0566 4.83332 12.6166 4.83332H0.883313C0.443313 4.83332 0.083313 5.19332 0.083313 5.63332ZM4.08331 9.49999H2.74998C2.47665 9.49999 2.24998 9.27332 2.24998 8.99999C2.24998 8.72665 2.47665 8.49999 2.74998 8.49999H4.08331C4.35665 8.49999 4.58331 8.72665 4.58331 8.99999C4.58331 9.27332 4.35665 9.49999 4.08331 9.49999ZM8.41665 9.49999H5.74998C5.47665 9.49999 5.24998 9.27332 5.24998 8.99999C5.24998 8.72665 5.47665 8.49999 5.74998 8.49999H8.41665C8.68998 8.49999 8.91665 8.72665 8.91665 8.99999C8.91665 9.27332 8.68998 9.49999 8.41665 9.49999Z" fill="#9DA3AF"/>
</symbol>

<symbol id="reg_step_4_done" width="14" height="12" viewBox="0 0 14 12" fill="none">
<path d="M13.4168 3.03199C13.4168 3.47199 13.0568 3.83199 12.6168 3.83199H0.883496C0.443496 3.83199 0.0834961 3.47199 0.0834961 3.03199V3.02532C0.0834961 1.49865 1.31683 0.26532 2.8435 0.26532H10.6502C12.1768 0.26532 13.4168 1.50532 13.4168 3.03199ZM0.0834961 5.63332V8.97332C0.0834961 10.5 1.31683 11.7333 2.8435 11.7333H10.6502C12.1768 11.7333 13.4168 10.4933 13.4168 8.96665V5.63332C13.4168 5.19332 13.0568 4.83332 12.6168 4.83332H0.883496C0.443496 4.83332 0.0834961 5.19332 0.0834961 5.63332ZM4.0835 9.49999H2.75016C2.47683 9.49999 2.25016 9.27332 2.25016 8.99999C2.25016 8.72665 2.47683 8.49999 2.75016 8.49999H4.0835C4.35683 8.49999 4.5835 8.72665 4.5835 8.99999C4.5835 9.27332 4.35683 9.49999 4.0835 9.49999ZM8.41683 9.49999H5.75016C5.47683 9.49999 5.25016 9.27332 5.25016 8.99999C5.25016 8.72665 5.47683 8.49999 5.75016 8.49999H8.41683C8.69016 8.49999 8.91683 8.72665 8.91683 8.99999C8.91683 9.27332 8.69016 9.49999 8.41683 9.49999Z" fill="#0091EA"/>
</symbol>

<symbol id="success" width="57" height="56" viewBox="0 0 57 56" fill="none">
<path d="M51.4082 25.673V28.0148C51.4057 34.3401 48.8399 40.0622 44.6883 44.2087C40.5368 48.3552 34.8121 50.9133 28.4868 50.9082C22.1615 50.9031 16.4368 48.3399 12.2929 44.1883C8.14897 40.0368 5.58828 34.3147 5.59083 27.9868C5.59337 21.6589 8.15915 15.9394 12.3107 11.7929C16.4623 7.64642 22.1869 5.08828 28.5123 5.09083C31.8977 5.09337 35.0947 5.82645 37.8005 7.06352C39.0783 7.64897 40.5902 7.08388 41.1731 5.80609C41.756 4.52829 41.1935 3.01632 39.9157 2.43342C36.5379 0.8909 32.6205 0.0025516 28.5148 6.19386e-06C20.7844 -0.00508463 13.7794 3.12832 8.7115 8.18859C3.64359 13.2489 0.505097 20.2538 0.500006 27.9843C0.494915 35.7147 3.62832 42.7196 8.68859 47.7875C13.7489 52.8555 20.7513 55.9965 28.4817 55.999C36.2121 56.0016 43.2171 52.8707 48.285 47.8105C53.3529 42.7502 56.494 35.7478 56.499 28.0148V25.673C56.499 24.268 55.3587 23.1276 53.9536 23.1276C52.5486 23.1276 51.4082 24.268 51.4082 25.673ZM52.154 5.85191L28.4995 29.5293L22.6629 23.6952C21.6676 22.7 20.0564 22.7 19.0637 23.6952C18.071 24.6905 18.0684 26.3017 19.0637 27.2944L26.6999 34.9307C27.6952 35.9259 29.3064 35.9234 30.3017 34.9307L55.7558 9.45112C56.7485 8.45586 56.7485 6.84462 55.7532 5.85191C54.758 4.8592 53.1467 4.8592 52.154 5.85445V5.85191Z" fill="#00C853"/>
</symbol>

<symbol id="support" width="16" height="16" viewBox="0 0 16 16" fill="none">
<path fill-rule="evenodd" clip-rule="evenodd" d="M16 8C16 3.5888 12.4111 0 8 0C3.5888 0 0 3.5888 0 8C0 12.4112 3.5888 16 8 16C12.4112 16 16 12.4112 16 8ZM9 13C9 12.4477 8.55228 12 8 12C7.44772 12 7 12.4477 7 13C7 13.5523 7.44772 14 8 14C8.55228 14 9 13.5523 9 13ZM11 6.04762C11 4.36716 9.6542 3 8 3C6.3458 3 5 4.36716 5 6.04762C5 6.46842 5.33578 6.80952 5.75 6.80952C6.12971 6.80952 6.44349 6.5229 6.49315 6.15101L6.50614 5.90912C6.57524 5.13355 7.21885 4.52381 8 4.52381C8.8271 4.52381 9.5 5.20739 9.5 6.04762C9.5 6.88785 8.8271 7.57143 8 7.57143C7.58578 7.57143 7.25 7.91253 7.25 8.33333V10.2381L7.25685 10.3415C7.30651 10.7134 7.62029 11 8 11C8.41422 11 8.75 10.6589 8.75 10.2381V8.99882L8.91663 8.94978C10.1239 8.55536 11 7.40347 11 6.04762Z" fill="#16A34A"/>
</symbol>

<symbol id="vector_1" width="32" height="37" viewBox="0 0 32 37" fill="none">
<path d="M29.5 36.2995C29.5 1.99995 29.5 1.99998 0.5 2" stroke="#D2D5DA" stroke-width="4"/>
</symbol>

<symbol id="vector_2" width="32" height="37" viewBox="0 0 32 37" fill="none">
<path d="M2 36.2995C2 11.4619 2.5 1.99999 31.5 2" stroke="#D2D5DA" stroke-width="4"/>
</symbol>

<symbol id="vector_3" width="32" height="37" viewBox="0 0 32 37" fill="none">
<path d="M29.5 0.700507C29.5 35 29.5 35 0.500001 35" stroke="#D2D5DA" stroke-width="4"/>
</symbol>

<symbol id="vector_4" width="32" height="37" viewBox="0 0 32 37" fill="none">
<path d="M2.5 0.700507C2.5 35 2.5 35 31.5 35" stroke="#D2D5DA" stroke-width="4"/>
</symbol>

</svg>
